<?xml version="1.0" encoding="UTF-8" standalone="no"?>
<!DOCTYPE svg PUBLIC "-//W3C//DTD SVG 1.1//EN"
 "http://www.w3.org/Graphics/SVG/1.1/DTD/svg11.dtd">
<!-- Generated by graphviz version 15.0.0 (20260523.1842)
 -->
<!-- Title: G Pages: 1 -->
<svg width="823pt" height="360pt"
 viewBox="1.00 1.00 822.00 359.00" xmlns="http://www.w3.org/2000/svg" xmlns:xlink="http://www.w3.org/1999/xlink">
<g id="graph0" class="graph" transform="scale(1 1) rotate(0) translate(5.44 354.69)">
<title>G</title>
<!-- profile -->
<g id="node1" class="node">
<title>profile</title>
<text xml:space="preserve" text-anchor="start" x="66.75" y="-309.75" font-family="Helvetica,sans-Serif" font-weight="bold" font-size="30.00">Same final accuracy, different decision surfaces</text>
<text xml:space="preserve" text-anchor="start" x="68.62" y="-292.1" font-family="Helvetica,sans-Serif" font-size="17.00">Counts are queries unless URL rows are shown; bucket cells show n / exact&#45;match count.</text>
<polygon fill="#e76f51" stroke="none" points="12,-234 12,-278.25 263.25,-278.25 263.25,-234 12,-234"/>
<polygon fill="none" stroke="#e76f51" points="12,-234 12,-278.25 263.25,-278.25 263.25,-234 12,-234"/>
<text xml:space="preserve" text-anchor="start" x="102" y="-245.55" font-family="Helvetica,sans-Serif" font-weight="bold" font-size="26.00" fill="white">Brave</text>
<polygon fill="none" stroke="#e76f51" points="12,-196.5 12,-234 263.25,-234 263.25,-196.5 12,-196.5"/>
<text xml:space="preserve" text-anchor="start" x="46.88" y="-207.95" font-family="Helvetica,sans-Serif" font-size="19.00">EM </text>
<text xml:space="preserve" text-anchor="start" x="80.62" y="-207.95" font-family="Helvetica,sans-Serif" font-weight="bold" font-size="19.00">21/100</text>
<text xml:space="preserve" text-anchor="start" x="138.38" y="-207.95" font-family="Helvetica,sans-Serif" font-size="19.00">   F1 0.270</text>
<polygon fill="none" stroke="#e76f51" points="12,-159 12,-196.5 263.25,-196.5 263.25,-159 12,-159"/>
<text xml:space="preserve" text-anchor="start" x="29.62" y="-170.45" font-family="Helvetica,sans-Serif" font-size="19.00">visible support </text>
<text xml:space="preserve" text-anchor="start" x="157.12" y="-170.45" font-family="Helvetica,sans-Serif" font-weight="bold" font-size="19.00">33</text>
<text xml:space="preserve" text-anchor="start" x="178.12" y="-170.45" font-family="Helvetica,sans-Serif" font-size="19.00"> queries</text>
<polygon fill="none" stroke="#e76f51" points="12,-121.5 12,-159 263.25,-159 263.25,-121.5 12,-121.5"/>
<text xml:space="preserve" text-anchor="start" x="36.38" y="-132.95" font-family="Helvetica,sans-Serif" font-size="19.00">rank&#45;1 gold </text>
<text xml:space="preserve" text-anchor="start" x="136.12" y="-132.95" font-family="Helvetica,sans-Serif" font-weight="bold" font-size="19.00">12%</text>
<text xml:space="preserve" text-anchor="start" x="174.38" y="-132.95" font-family="Helvetica,sans-Serif" font-size="19.00"> (12/97)</text>
<polygon fill="none" stroke="#e76f51" points="12,-84 12,-121.5 263.25,-121.5 263.25,-84 12,-84"/>
<text xml:space="preserve" text-anchor="start" x="22.5" y="-95.45" font-family="Helvetica,sans-Serif" font-size="19.00">contradict:gold </text>
<text xml:space="preserve" text-anchor="start" x="151.5" y="-95.45" font-family="Helvetica,sans-Serif" font-weight="bold" font-size="19.00">0.92</text>
<text xml:space="preserve" text-anchor="start" x="188.25" y="-95.45" font-family="Helvetica,sans-Serif" font-size="19.00"> (89/97)</text>
<polygon fill="none" stroke="#e76f51" points="12,-48 12,-84 263.25,-84 263.25,-48 12,-48"/>
<text xml:space="preserve" text-anchor="start" x="21" y="-61.5" font-family="Helvetica,sans-Serif" font-size="17.00">SMART 8/3 EM   MISSED 25/9</text>
<polygon fill="none" stroke="#e76f51" points="12,-12 12,-48 263.25,-48 263.25,-12 12,-12"/>
<text xml:space="preserve" text-anchor="start" x="24.75" y="-25.5" font-family="Helvetica,sans-Serif" font-size="17.00">BLIND 51/9 EM   NO&#45;OP 16/0</text>
<polygon fill="#2a80b9" stroke="none" points="275.25,-234 275.25,-278.25 534.75,-278.25 534.75,-234 275.25,-234"/>
<polygon fill="none" stroke="#2a80b9" points="275.25,-234 275.25,-278.25 534.75,-278.25 534.75,-234 275.25,-234"/>
<text xml:space="preserve" text-anchor="start" x="369" y="-245.55" font-family="Helvetica,sans-Serif" font-weight="bold" font-size="26.00" fill="white">Tavily</text>
<polygon fill="none" stroke="#2a80b9" points="275.25,-196.5 275.25,-234 534.75,-234 534.75,-196.5 275.25,-196.5"/>
<text xml:space="preserve" text-anchor="start" x="314.25" y="-207.95" font-family="Helvetica,sans-Serif" font-size="19.00">EM </text>
<text xml:space="preserve" text-anchor="start" x="348" y="-207.95" font-family="Helvetica,sans-Serif" font-weight="bold" font-size="19.00">21/100</text>
<text xml:space="preserve" text-anchor="start" x="405.75" y="-207.95" font-family="Helvetica,sans-Serif" font-size="19.00">   F1 0.261</text>
<polygon fill="none" stroke="#2a80b9" points="275.25,-159 275.25,-196.5 534.75,-196.5 534.75,-159 275.25,-159"/>
<text xml:space="preserve" text-anchor="start" x="297" y="-170.45" font-family="Helvetica,sans-Serif" font-size="19.00">visible support </text>
<text xml:space="preserve" text-anchor="start" x="424.5" y="-170.45" font-family="Helvetica,sans-Serif" font-weight="bold" font-size="19.00">24</text>
<text xml:space="preserve" text-anchor="start" x="445.5" y="-170.45" font-family="Helvetica,sans-Serif" font-size="19.00"> queries</text>
<polygon fill="none" stroke="#2a80b9" points="275.25,-121.5 275.25,-159 534.75,-159 534.75,-121.5 275.25,-121.5"/>
<text xml:space="preserve" text-anchor="start" x="303.75" y="-132.95" font-family="Helvetica,sans-Serif" font-size="19.00">rank&#45;1 gold </text>
<text xml:space="preserve" text-anchor="start" x="403.5" y="-132.95" font-family="Helvetica,sans-Serif" font-weight="bold" font-size="19.00">48%</text>
<text xml:space="preserve" text-anchor="start" x="441.75" y="-132.95" font-family="Helvetica,sans-Serif" font-size="19.00"> (15/31)</text>
<polygon fill="none" stroke="#2a80b9" points="275.25,-84 275.25,-121.5 534.75,-121.5 534.75,-84 275.25,-84"/>
<text xml:space="preserve" text-anchor="start" x="289.88" y="-95.45" font-family="Helvetica,sans-Serif" font-size="19.00">contradict:gold </text>
<text xml:space="preserve" text-anchor="start" x="418.88" y="-95.45" font-family="Helvetica,sans-Serif" font-weight="bold" font-size="19.00">1.87</text>
<text xml:space="preserve" text-anchor="start" x="455.62" y="-95.45" font-family="Helvetica,sans-Serif" font-size="19.00"> (58/31)</text>
<polygon fill="none" stroke="#2a80b9" points="275.25,-48 275.25,-84 534.75,-84 534.75,-48 275.25,-48"/>
<text xml:space="preserve" text-anchor="start" x="284.25" y="-61.5" font-family="Helvetica,sans-Serif" font-size="17.00">SMART 11/7 EM   MISSED 13/5</text>
<polygon fill="none" stroke="#2a80b9" points="275.25,-12 275.25,-48 534.75,-48 534.75,-12 275.25,-12"/>
<text xml:space="preserve" text-anchor="start" x="292.12" y="-25.5" font-family="Helvetica,sans-Serif" font-size="17.00">BLIND 55/9 EM   NO&#45;OP 21/0</text>
<polygon fill="#2aa876" stroke="none" points="546.75,-234 546.75,-278.25 800.25,-278.25 800.25,-234 546.75,-234"/>
<polygon fill="none" stroke="#2aa876" points="546.75,-234 546.75,-278.25 800.25,-278.25 800.25,-234 546.75,-234"/>
<text xml:space="preserve" text-anchor="start" x="616.88" y="-245.55" font-family="Helvetica,sans-Serif" font-weight="bold" font-size="26.00" fill="white">Firecrawl</text>
<polygon fill="none" stroke="#2aa876" points="546.75,-196.5 546.75,-234 800.25,-234 800.25,-196.5 546.75,-196.5"/>
<text xml:space="preserve" text-anchor="start" x="582.75" y="-207.95" font-family="Helvetica,sans-Serif" font-size="19.00">EM </text>
<text xml:space="preserve" text-anchor="start" x="616.5" y="-207.95" font-family="Helvetica,sans-Serif" font-weight="bold" font-size="19.00">23/100</text>
<text xml:space="preserve" text-anchor="start" x="674.25" y="-207.95" font-family="Helvetica,sans-Serif" font-size="19.00">   F1 0.282</text>
<polygon fill="none" stroke="#2aa876" points="546.75,-159 546.75,-196.5 800.25,-196.5 800.25,-159 546.75,-159"/>
<text xml:space="preserve" text-anchor="start" x="565.5" y="-170.45" font-family="Helvetica,sans-Serif" font-size="19.00">visible support </text>
<text xml:space="preserve" text-anchor="start" x="693" y="-170.45" font-family="Helvetica,sans-Serif" font-weight="bold" font-size="19.00">19</text>
<text xml:space="preserve" text-anchor="start" x="714" y="-170.45" font-family="Helvetica,sans-Serif" font-size="19.00"> queries</text>
<polygon fill="none" stroke="#2aa876" points="546.75,-121.5 546.75,-159 800.25,-159 800.25,-121.5 546.75,-121.5"/>
<text xml:space="preserve" text-anchor="start" x="578.25" y="-132.95" font-family="Helvetica,sans-Serif" font-size="19.00">rank&#45;1 gold </text>
<text xml:space="preserve" text-anchor="start" x="678" y="-132.95" font-family="Helvetica,sans-Serif" font-weight="bold" font-size="19.00">11%</text>
<text xml:space="preserve" text-anchor="start" x="714.75" y="-132.95" font-family="Helvetica,sans-Serif" font-size="19.00"> (3/27)</text>
<polygon fill="none" stroke="#2aa876" points="546.75,-84 546.75,-121.5 800.25,-121.5 800.25,-84 546.75,-84"/>
<text xml:space="preserve" text-anchor="start" x="558.38" y="-95.45" font-family="Helvetica,sans-Serif" font-size="19.00">contradict:gold </text>
<text xml:space="preserve" text-anchor="start" x="687.38" y="-95.45" font-family="Helvetica,sans-Serif" font-weight="bold" font-size="19.00">2.59</text>
<text xml:space="preserve" text-anchor="start" x="724.12" y="-95.45" font-family="Helvetica,sans-Serif" font-size="19.00"> (70/27)</text>
<polygon fill="none" stroke="#2aa876" points="546.75,-48 546.75,-84 800.25,-84 800.25,-48 546.75,-48"/>
<text xml:space="preserve" text-anchor="start" x="556.88" y="-61.5" font-family="Helvetica,sans-Serif" font-size="17.00">SMART 7/2 EM   MISSED 12/5</text>
<polygon fill="none" stroke="#2aa876" points="546.75,-12 546.75,-48 800.25,-48 800.25,-12 546.75,-12"/>
<text xml:space="preserve" text-anchor="start" x="555.75" y="-25.5" font-family="Helvetica,sans-Serif" font-size="17.00">BLIND 67/16 EM   NO&#45;OP 14/0</text>
</g>
</g>
</svg>
