<?xml version="1.0" encoding="UTF-8" standalone="no"?>
<!DOCTYPE svg PUBLIC "-//W3C//DTD SVG 1.1//EN"
 "http://www.w3.org/Graphics/SVG/1.1/DTD/svg11.dtd">
<!-- Generated by graphviz version 15.0.0 (20260523.1842)
 -->
<!-- Title: G Pages: 1 -->
<svg width="848pt" height="621pt"
 viewBox="2.00 2.00 846.00 619.00" xmlns="http://www.w3.org/2000/svg" xmlns:xlink="http://www.w3.org/1999/xlink">
<g id="graph0" class="graph" transform="scale(1 1) rotate(0) translate(3.6 617.74)">
<title>G</title>
<polygon fill="white" stroke="none" points="-1.44,1.44 -1.44,-615.58 842.58,-615.58 842.58,1.44 -1.44,1.44"/>
<g id="clust2" class="cluster">
<title>cluster_exec</title>
<path fill="white" stroke="#cbd5e1" d="M20,-245.99C20,-245.99 563,-245.99 563,-245.99 569,-245.99 575,-251.99 575,-257.99 575,-257.99 575,-594.14 575,-594.14 575,-600.14 569,-606.14 563,-606.14 563,-606.14 20,-606.14 20,-606.14 14,-606.14 8,-600.14 8,-594.14 8,-594.14 8,-257.99 8,-257.99 8,-251.99 14,-245.99 20,-245.99"/>
<text xml:space="preserve" text-anchor="middle" x="291.5" y="-587.89" font-family="Helvetica,sans-Serif" font-size="15.00">Execution lane: agent loop repeats until final answer; only search provider changes</text>
</g>
<g id="clust3" class="cluster">
<title>cluster_oracle</title>
<path fill="white" stroke="#cbd5e1" d="M232,-8C232,-8 584,-8 584,-8 590,-8 596,-14 596,-20 596,-20 596,-225.99 596,-225.99 596,-231.99 590,-237.99 584,-237.99 584,-237.99 232,-237.99 232,-237.99 226,-237.99 220,-231.99 220,-225.99 220,-225.99 220,-20 220,-20 220,-14 226,-8 232,-8"/>
<text xml:space="preserve" text-anchor="middle" x="408" y="-219.74" font-family="Helvetica,sans-Serif" font-size="15.00">Oracle lane: replay visible evidence one URL at a time</text>
</g>
<!-- q -->
<g id="node1" class="node">
<title>q</title>
<path fill="#fff7ed" stroke="#ea580c" stroke-width="1.35" d="M392.89,-577.39C392.89,-577.39 263.11,-577.39 263.11,-577.39 257.11,-577.39 251.11,-571.39 251.11,-565.39 251.11,-565.39 251.11,-553.31 251.11,-553.31 251.11,-547.31 257.11,-541.31 263.11,-541.31 263.11,-541.31 392.89,-541.31 392.89,-541.31 398.89,-541.31 404.89,-547.31 404.89,-553.31 404.89,-553.31 404.89,-565.39 404.89,-565.39 404.89,-571.39 398.89,-577.39 392.89,-577.39"/>
<text xml:space="preserve" text-anchor="start" x="264.62" y="-561" font-family="Helvetica,sans-Serif" font-size="13.00" fill="#0f172a"> </text>
<text xml:space="preserve" text-anchor="start" x="268.38" y="-561" font-family="Helvetica,sans-Serif" font-weight="bold" font-size="13.00" fill="#0f172a">100 hard questions</text>
<text xml:space="preserve" text-anchor="start" x="259.75" y="-548" font-family="Helvetica,sans-Serif" font-size="10.00" fill="#0f172a">SealQA&#45;Hard stratified sample</text>
<text xml:space="preserve" text-anchor="start" x="392.5" y="-548" font-family="Helvetica,sans-Serif" font-size="13.00" fill="#0f172a"> </text>
</g>
<!-- agent -->
<g id="node2" class="node">
<title>agent</title>
<path fill="#eef2ff" stroke="#4f46e5" stroke-width="1.35" d="M394.76,-502.31C394.76,-502.31 261.24,-502.31 261.24,-502.31 255.24,-502.31 249.24,-496.31 249.24,-490.31 249.24,-490.31 249.24,-478.23 249.24,-478.23 249.24,-472.23 255.24,-466.23 261.24,-466.23 261.24,-466.23 394.76,-466.23 394.76,-466.23 400.76,-466.23 406.76,-472.23 406.76,-478.23 406.76,-478.23 406.76,-490.31 406.76,-490.31 406.76,-496.31 400.76,-502.31 394.76,-502.31"/>
<text xml:space="preserve" text-anchor="start" x="257.88" y="-485.92" font-family="Helvetica,sans-Serif" font-size="13.00" fill="#0f172a"> </text>
<text xml:space="preserve" text-anchor="start" x="261.62" y="-485.92" font-family="Helvetica,sans-Serif" font-weight="bold" font-size="13.00" fill="#0f172a">Frozen GPT&#45;5.4 agent</text>
<text xml:space="preserve" text-anchor="start" x="266.5" y="-472.92" font-family="Helvetica,sans-Serif" font-size="10.00" fill="#0f172a">same prompt, tools, budget</text>
<text xml:space="preserve" text-anchor="start" x="385.75" y="-472.92" font-family="Helvetica,sans-Serif" font-size="13.00" fill="#0f172a"> </text>
</g>
<!-- q&#45;&gt;agent -->
<g id="edge1" class="edge">
<title>q&#45;&gt;agent</title>
<path fill="none" stroke="#64748b" stroke-width="1.1" d="M328,-540.79C328,-540.79 328,-511.54 328,-511.54"/>
<polygon fill="#64748b" stroke="#64748b" stroke-width="1.1" points="330.45,-511.54 328,-504.54 325.55,-511.54 330.45,-511.54"/>
</g>
<!-- step -->
<g id="node3" class="node">
<title>step</title>
<path fill="#fef9c3" stroke="#ca8a04" stroke-width="1.35" d="M385.01,-432.23C385.01,-432.23 276.99,-432.23 276.99,-432.23 270.99,-432.23 264.99,-426.23 264.99,-420.23 264.99,-420.23 264.99,-398.15 264.99,-398.15 264.99,-392.15 270.99,-386.15 276.99,-386.15 276.99,-386.15 385.01,-386.15 385.01,-386.15 391.01,-386.15 397.01,-392.15 397.01,-398.15 397.01,-398.15 397.01,-420.23 397.01,-420.23 397.01,-426.23 391.01,-432.23 385.01,-432.23"/>
<text xml:space="preserve" text-anchor="start" x="278.12" y="-415.84" font-family="Helvetica,sans-Serif" font-size="13.00" fill="#0f172a"> </text>
<text xml:space="preserve" text-anchor="start" x="281.88" y="-415.84" font-family="Helvetica,sans-Serif" font-weight="bold" font-size="13.00" fill="#0f172a">Agent loop step</text>
<text xml:space="preserve" text-anchor="start" x="273.62" y="-405.69" font-family="Helvetica,sans-Serif" font-size="10.00" fill="#0f172a">observe evidence, reason,</text>
<text xml:space="preserve" text-anchor="start" x="277" y="-392.84" font-family="Helvetica,sans-Serif" font-size="10.00" fill="#0f172a">then choose next action</text>
<text xml:space="preserve" text-anchor="start" x="381.25" y="-392.84" font-family="Helvetica,sans-Serif" font-size="13.00" fill="#0f172a"> </text>
</g>
<!-- agent&#45;&gt;step -->
<g id="edge2" class="edge">
<title>agent&#45;&gt;step</title>
<path fill="none" stroke="#64748b" stroke-width="1.1" d="M331,-465.71C331,-465.71 331,-441.32 331,-441.32"/>
<polygon fill="#64748b" stroke="#64748b" stroke-width="1.1" points="333.45,-441.32 331,-434.32 328.55,-441.32 333.45,-441.32"/>
</g>
<!-- search -->
<g id="node4" class="node">
<title>search</title>
<path fill="#e0f2fe" stroke="#0284c7" stroke-width="1.35" d="M829.14,-357.15C829.14,-357.15 754.86,-357.15 754.86,-357.15 748.86,-357.15 742.86,-351.15 742.86,-345.15 742.86,-345.15 742.86,-333.07 742.86,-333.07 742.86,-327.07 748.86,-321.07 754.86,-321.07 754.86,-321.07 829.14,-321.07 829.14,-321.07 835.14,-321.07 841.14,-327.07 841.14,-333.07 841.14,-333.07 841.14,-345.15 841.14,-345.15 841.14,-351.15 835.14,-357.15 829.14,-357.15"/>
<text xml:space="preserve" text-anchor="start" x="751.88" y="-340.76" font-family="Helvetica,sans-Serif" font-size="13.00" fill="#0f172a"> </text>
<text xml:space="preserve" text-anchor="start" x="755.62" y="-340.76" font-family="Helvetica,sans-Serif" font-weight="bold" font-size="13.00" fill="#0f172a">search_web</text>
<text xml:space="preserve" text-anchor="start" x="751.5" y="-327.76" font-family="Helvetica,sans-Serif" font-size="10.00" fill="#0f172a">one or many calls</text>
<text xml:space="preserve" text-anchor="start" x="828.75" y="-327.76" font-family="Helvetica,sans-Serif" font-size="13.00" fill="#0f172a"> </text>
</g>
<!-- step&#45;&gt;search -->
<g id="edge3" class="edge">
<title>step&#45;&gt;search</title>
<path fill="none" stroke="#0284c7" stroke-width="1.1" d="M309,-385.52C309,-379.16 309,-374 309,-374 309,-374 775.62,-374 775.62,-374 775.62,-374 775.62,-366.45 775.62,-366.45"/>
<polygon fill="#0284c7" stroke="#0284c7" stroke-width="1.1" points="778.07,-366.45 775.62,-359.45 773.17,-366.45 778.07,-366.45"/>
</g>
<!-- fetch -->
<g id="node7" class="node">
<title>fetch</title>
<path fill="#fae8ff" stroke="#9333ea" stroke-width="1.35" d="M708.76,-362.15C708.76,-362.15 587.24,-362.15 587.24,-362.15 581.24,-362.15 575.24,-356.15 575.24,-350.15 575.24,-350.15 575.24,-328.07 575.24,-328.07 575.24,-322.07 581.24,-316.07 587.24,-316.07 587.24,-316.07 708.76,-316.07 708.76,-316.07 714.76,-316.07 720.76,-322.07 720.76,-328.07 720.76,-328.07 720.76,-350.15 720.76,-350.15 720.76,-356.15 714.76,-362.15 708.76,-362.15"/>
<text xml:space="preserve" text-anchor="start" x="610.5" y="-345.76" font-family="Helvetica,sans-Serif" font-size="13.00" fill="#0f172a"> </text>
<text xml:space="preserve" text-anchor="start" x="614.25" y="-345.76" font-family="Helvetica,sans-Serif" font-weight="bold" font-size="13.00" fill="#0f172a">fetch_page</text>
<text xml:space="preserve" text-anchor="start" x="597.38" y="-335.61" font-family="Helvetica,sans-Serif" font-size="10.00" fill="#0f172a">selected document IDs</text>
<text xml:space="preserve" text-anchor="start" x="583.88" y="-322.76" font-family="Helvetica,sans-Serif" font-size="10.00" fill="#0f172a">shared Jina Reader backend</text>
<text xml:space="preserve" text-anchor="start" x="708.38" y="-322.76" font-family="Helvetica,sans-Serif" font-size="13.00" fill="#0f172a"> </text>
</g>
<!-- step&#45;&gt;fetch -->
<g id="edge7" class="edge">
<title>step&#45;&gt;fetch</title>
<path fill="none" stroke="#7c3aed" stroke-width="1.1" d="M397.36,-402C400.89,-402 403.01,-402 403.01,-402 403.01,-402 403.01,-339 403.01,-339 403.01,-339 566.16,-339 566.16,-339"/>
<polygon fill="#7c3aed" stroke="#7c3aed" stroke-width="1.1" points="566.16,-341.45 573.16,-339 566.16,-336.55 566.16,-341.45"/>
</g>
<!-- ans -->
<g id="node9" class="node">
<title>ans</title>
<path fill="#e2e8f0" stroke="#475569" stroke-width="1.35" d="M387.26,-357.15C387.26,-357.15 274.74,-357.15 274.74,-357.15 268.74,-357.15 262.74,-351.15 262.74,-345.15 262.74,-345.15 262.74,-333.07 262.74,-333.07 262.74,-327.07 268.74,-321.07 274.74,-321.07 274.74,-321.07 387.26,-321.07 387.26,-321.07 393.26,-321.07 399.26,-327.07 399.26,-333.07 399.26,-333.07 399.26,-345.15 399.26,-345.15 399.26,-351.15 393.26,-357.15 387.26,-357.15"/>
<text xml:space="preserve" text-anchor="start" x="288.62" y="-340.76" font-family="Helvetica,sans-Serif" font-size="13.00" fill="#0f172a"> </text>
<text xml:space="preserve" text-anchor="start" x="292.38" y="-340.76" font-family="Helvetica,sans-Serif" font-weight="bold" font-size="13.00" fill="#0f172a">Final answer</text>
<text xml:space="preserve" text-anchor="start" x="271.38" y="-327.76" font-family="Helvetica,sans-Serif" font-size="10.00" fill="#0f172a">short answer or abstention</text>
<text xml:space="preserve" text-anchor="start" x="386.88" y="-327.76" font-family="Helvetica,sans-Serif" font-size="13.00" fill="#0f172a"> </text>
</g>
<!-- step&#45;&gt;ans -->
<g id="edge10" class="edge">
<title>step&#45;&gt;ans</title>
<path fill="none" stroke="#475569" stroke-width="1.1" d="M353,-385.85C353,-385.85 353,-366.14 353,-366.14"/>
<polygon fill="#475569" stroke="#475569" stroke-width="1.1" points="355.46,-366.14 353.01,-359.14 350.56,-366.14 355.46,-366.14"/>
</g>
<!-- prov -->
<g id="node5" class="node">
<title>prov</title>
<path fill="#f0fdfa" stroke="#0f766e" stroke-width="1.35" d="M561.14,-582.39C561.14,-582.39 444.86,-582.39 444.86,-582.39 438.86,-582.39 432.86,-576.39 432.86,-570.39 432.86,-570.39 432.86,-548.31 432.86,-548.31 432.86,-542.31 438.86,-536.31 444.86,-536.31 444.86,-536.31 561.14,-536.31 561.14,-536.31 567.14,-536.31 573.14,-542.31 573.14,-548.31 573.14,-548.31 573.14,-570.39 573.14,-570.39 573.14,-576.39 567.14,-582.39 561.14,-582.39"/>
<text xml:space="preserve" text-anchor="start" x="441.5" y="-566" font-family="Helvetica,sans-Serif" font-size="13.00" fill="#0f172a"> </text>
<text xml:space="preserve" text-anchor="start" x="445.25" y="-566" font-family="Helvetica,sans-Serif" font-weight="bold" font-size="13.00" fill="#0f172a">Provider condition</text>
<text xml:space="preserve" text-anchor="start" x="448.62" y="-555.85" font-family="Helvetica,sans-Serif" font-size="10.00" fill="#0f172a">Brave / Tavily / Firecrawl</text>
<text xml:space="preserve" text-anchor="start" x="452" y="-543" font-family="Helvetica,sans-Serif" font-size="10.00" fill="#0f172a">only varied component</text>
<text xml:space="preserve" text-anchor="start" x="550.25" y="-543" font-family="Helvetica,sans-Serif" font-size="13.00" fill="#0f172a"> </text>
</g>
<!-- search&#45;&gt;prov -->
<g id="edge4" class="edge">
<title>search&#45;&gt;prov</title>
<path fill="none" stroke="#64748b" stroke-width="1.1" d="M808.38,-357.48C808.38,-410.33 808.38,-559 808.38,-559 808.38,-559 582.11,-559 582.11,-559"/>
<polygon fill="#64748b" stroke="#64748b" stroke-width="1.1" points="582.11,-556.55 575.11,-559 582.11,-561.45 582.11,-556.55"/>
</g>
<!-- surf -->
<g id="node6" class="node">
<title>surf</title>
<path fill="#dcfce7" stroke="#16a34a" stroke-width="1.35" d="M563.14,-512.31C563.14,-512.31 440.86,-512.31 440.86,-512.31 434.86,-512.31 428.86,-506.31 428.86,-500.31 428.86,-500.31 428.86,-468.23 428.86,-468.23 428.86,-462.23 434.86,-456.23 440.86,-456.23 440.86,-456.23 563.14,-456.23 563.14,-456.23 569.14,-456.23 575.14,-462.23 575.14,-468.23 575.14,-468.23 575.14,-500.31 575.14,-500.31 575.14,-506.31 569.14,-512.31 563.14,-512.31"/>
<text xml:space="preserve" text-anchor="start" x="446.12" y="-495.92" font-family="Helvetica,sans-Serif" font-size="13.00" fill="#0f172a"> </text>
<text xml:space="preserve" text-anchor="start" x="449.88" y="-495.92" font-family="Helvetica,sans-Serif" font-weight="bold" font-size="13.00" fill="#0f172a">Decision surface</text>
<text xml:space="preserve" text-anchor="start" x="437.5" y="-485.77" font-family="Helvetica,sans-Serif" font-size="10.00" fill="#0f172a">document id, rank, title, URL,</text>
<text xml:space="preserve" text-anchor="start" x="445.38" y="-475.77" font-family="Helvetica,sans-Serif" font-size="10.00" fill="#0f172a">snippet surface, metadata</text>
<text xml:space="preserve" text-anchor="start" x="439.75" y="-462.92" font-family="Helvetica,sans-Serif" font-style="italic" font-size="10.00" fill="#0f172a">no page text unless fetched</text>
<text xml:space="preserve" text-anchor="start" x="560.5" y="-462.92" font-family="Helvetica,sans-Serif" font-size="13.00" fill="#0f172a"> </text>
</g>
<!-- prov&#45;&gt;surf -->
<g id="edge5" class="edge">
<title>prov&#45;&gt;surf</title>
<path fill="none" stroke="#64748b" stroke-width="1.1" d="M503,-536.01C503,-536.01 503,-521.55 503,-521.55"/>
<polygon fill="#64748b" stroke="#64748b" stroke-width="1.1" points="505.45,-521.55 503,-514.55 500.55,-521.55 505.45,-521.55"/>
</g>
<!-- obs -->
<g id="node8" class="node">
<title>obs</title>
<path fill="#f8fafc" stroke="#475569" stroke-width="1.35" d="M563.01,-432.23C563.01,-432.23 430.99,-432.23 430.99,-432.23 424.99,-432.23 418.99,-426.23 418.99,-420.23 418.99,-420.23 418.99,-398.15 418.99,-398.15 418.99,-392.15 424.99,-386.15 430.99,-386.15 430.99,-386.15 563.01,-386.15 563.01,-386.15 569.01,-386.15 575.01,-392.15 575.01,-398.15 575.01,-398.15 575.01,-420.23 575.01,-420.23 575.01,-426.23 569.01,-432.23 563.01,-432.23"/>
<text xml:space="preserve" text-anchor="start" x="437.75" y="-415.84" font-family="Helvetica,sans-Serif" font-size="13.00" fill="#0f172a"> </text>
<text xml:space="preserve" text-anchor="start" x="441.5" y="-415.84" font-family="Helvetica,sans-Serif" font-weight="bold" font-size="13.00" fill="#0f172a">Tool observations</text>
<text xml:space="preserve" text-anchor="start" x="427.62" y="-405.69" font-family="Helvetica,sans-Serif" font-size="10.00" fill="#0f172a">search results or page evidence</text>
<text xml:space="preserve" text-anchor="start" x="450.12" y="-392.84" font-family="Helvetica,sans-Serif" font-size="10.00" fill="#0f172a">returned to the agent</text>
<text xml:space="preserve" text-anchor="start" x="540.12" y="-392.84" font-family="Helvetica,sans-Serif" font-size="13.00" fill="#0f172a"> </text>
</g>
<!-- surf&#45;&gt;obs -->
<g id="edge6" class="edge">
<title>surf&#45;&gt;obs</title>
<path fill="none" stroke="#64748b" stroke-width="1.1" d="M501.94,-455.89C501.94,-455.89 501.94,-441.39 501.94,-441.39"/>
<polygon fill="#64748b" stroke="#64748b" stroke-width="1.1" points="504.39,-441.39 501.94,-434.39 499.49,-441.39 504.39,-441.39"/>
</g>
<!-- fetch&#45;&gt;obs -->
<g id="edge8" class="edge">
<title>fetch&#45;&gt;obs</title>
<path fill="none" stroke="#64748b" stroke-width="1.1" d="M648,-362.77C648,-383.05 648,-409 648,-409 648,-409 584.26,-409 584.26,-409"/>
<polygon fill="#64748b" stroke="#64748b" stroke-width="1.1" points="584.26,-406.55 577.26,-409 584.26,-411.45 584.26,-406.55"/>
</g>
<!-- obs&#45;&gt;step -->
<g id="edge9" class="edge">
<title>obs&#45;&gt;step</title>
<path fill="none" stroke="#ca8a04" stroke-width="1.5" d="M418.38,-417C418.38,-417 406.6,-417 406.6,-417"/>
<polygon fill="#ca8a04" stroke="#ca8a04" stroke-width="1.5" points="406.6,-414.55 399.6,-417 406.6,-419.45 406.6,-414.55"/>
</g>
<!-- trace -->
<g id="node10" class="node">
<title>trace</title>
<path fill="#f8fafc" stroke="#475569" stroke-width="1.35" d="M407.51,-292.07C407.51,-292.07 254.49,-292.07 254.49,-292.07 248.49,-292.07 242.49,-286.07 242.49,-280.07 242.49,-280.07 242.49,-257.99 242.49,-257.99 242.49,-251.99 248.49,-245.99 254.49,-245.99 254.49,-245.99 407.51,-245.99 407.51,-245.99 413.51,-245.99 419.51,-251.99 419.51,-257.99 419.51,-257.99 419.51,-280.07 419.51,-280.07 419.51,-286.07 413.51,-292.07 407.51,-292.07"/>
<text xml:space="preserve" text-anchor="start" x="273.25" y="-275.68" font-family="Helvetica,sans-Serif" font-size="13.00" fill="#0f172a"> </text>
<text xml:space="preserve" text-anchor="start" x="277" y="-275.68" font-family="Helvetica,sans-Serif" font-weight="bold" font-size="13.00" fill="#0f172a">Trajectory JSONL</text>
<text xml:space="preserve" text-anchor="start" x="272.12" y="-265.53" font-family="Helvetica,sans-Serif" font-size="10.00" fill="#0f172a">all searches, visible URLs,</text>
<text xml:space="preserve" text-anchor="start" x="251.12" y="-252.68" font-family="Helvetica,sans-Serif" font-size="10.00" fill="#0f172a">fetches, tokens, final + gold answer</text>
<text xml:space="preserve" text-anchor="start" x="407.12" y="-252.68" font-family="Helvetica,sans-Serif" font-size="13.00" fill="#0f172a"> </text>
</g>
<!-- ans&#45;&gt;trace -->
<g id="edge11" class="edge">
<title>ans&#45;&gt;trace</title>
<path fill="none" stroke="#64748b" stroke-width="1.1" d="M331,-320.7C331,-320.7 331,-301.27 331,-301.27"/>
<polygon fill="#64748b" stroke="#64748b" stroke-width="1.1" points="333.45,-301.27 331,-294.27 328.55,-301.27 333.45,-301.27"/>
</g>
<!-- records -->
<g id="node11" class="node">
<title>records</title>
<path fill="#ffe4e6" stroke="#e11d48" stroke-width="1.35" d="M401.51,-214.24C401.51,-214.24 260.49,-214.24 260.49,-214.24 254.49,-214.24 248.49,-208.24 248.49,-202.24 248.49,-202.24 248.49,-180.16 248.49,-180.16 248.49,-174.16 254.49,-168.16 260.49,-168.16 260.49,-168.16 401.51,-168.16 401.51,-168.16 407.51,-168.16 413.51,-174.16 413.51,-180.16 413.51,-180.16 413.51,-202.24 413.51,-202.24 413.51,-208.24 407.51,-214.24 401.51,-214.24"/>
<text xml:space="preserve" text-anchor="start" x="282.62" y="-197.85" font-family="Helvetica,sans-Serif" font-size="13.00" fill="#0f172a"> </text>
<text xml:space="preserve" text-anchor="start" x="286.38" y="-197.85" font-family="Helvetica,sans-Serif" font-weight="bold" font-size="13.00" fill="#0f172a">Judge records</text>
<text xml:space="preserve" text-anchor="start" x="257.12" y="-187.7" font-family="Helvetica,sans-Serif" font-size="10.00" fill="#0f172a">snippet&#45;only for every visible URL</text>
<text xml:space="preserve" text-anchor="start" x="264.25" y="-174.85" font-family="Helvetica,sans-Serif" font-size="10.00" fill="#0f172a">page&#45;visible for fetched URLs</text>
<text xml:space="preserve" text-anchor="start" x="394" y="-174.85" font-family="Helvetica,sans-Serif" font-size="13.00" fill="#0f172a"> </text>
</g>
<!-- trace&#45;&gt;records -->
<g id="edge12" class="edge">
<title>trace&#45;&gt;records</title>
<path fill="none" stroke="#64748b" stroke-width="1.1" d="M331,-245.68C331,-245.68 331,-223.47 331,-223.47"/>
<polygon fill="#64748b" stroke="#64748b" stroke-width="1.1" points="333.45,-223.47 331,-216.47 328.55,-223.47 333.45,-223.47"/>
</g>
<!-- kimi -->
<g id="node12" class="node">
<title>kimi</title>
<path fill="#fdf2f8" stroke="#be185d" stroke-width="1.35" d="M393.26,-144.16C393.26,-144.16 268.74,-144.16 268.74,-144.16 262.74,-144.16 256.74,-138.16 256.74,-132.16 256.74,-132.16 256.74,-100.08 256.74,-100.08 256.74,-94.08 262.74,-88.08 268.74,-88.08 268.74,-88.08 393.26,-88.08 393.26,-88.08 399.26,-88.08 405.26,-94.08 405.26,-100.08 405.26,-100.08 405.26,-132.16 405.26,-132.16 405.26,-138.16 399.26,-144.16 393.26,-144.16"/>
<text xml:space="preserve" text-anchor="start" x="278.5" y="-127.77" font-family="Helvetica,sans-Serif" font-size="13.00" fill="#0f172a"> </text>
<text xml:space="preserve" text-anchor="start" x="282.25" y="-127.77" font-family="Helvetica,sans-Serif" font-weight="bold" font-size="13.00" fill="#0f172a">Kimi&#45;K2.6 judge</text>
<text xml:space="preserve" text-anchor="start" x="272.12" y="-117.62" font-family="Helvetica,sans-Serif" font-size="10.00" fill="#0f172a">gold support, contradiction,</text>
<text xml:space="preserve" text-anchor="start" x="265.38" y="-107.62" font-family="Helvetica,sans-Serif" font-size="10.00" fill="#0f172a">model&#45;answer support, spans,</text>
<text xml:space="preserve" text-anchor="start" x="285.25" y="-94.77" font-family="Helvetica,sans-Serif" font-size="10.00" fill="#0f172a">garbage, confidence</text>
<text xml:space="preserve" text-anchor="start" x="373" y="-94.77" font-family="Helvetica,sans-Serif" font-size="13.00" fill="#0f172a"> </text>
</g>
<!-- records&#45;&gt;kimi -->
<g id="edge13" class="edge">
<title>records&#45;&gt;kimi</title>
<path fill="none" stroke="#64748b" stroke-width="1.1" d="M331,-167.86C331,-167.86 331,-153.4 331,-153.4"/>
<polygon fill="#64748b" stroke="#64748b" stroke-width="1.1" points="333.45,-153.4 331,-146.4 328.55,-153.4 333.45,-153.4"/>
</g>
<!-- metrics -->
<g id="node13" class="node">
<title>metrics</title>
<path fill="#fffbeb" stroke="#d97706" stroke-width="1.35" d="M409.39,-64.08C409.39,-64.08 252.61,-64.08 252.61,-64.08 246.61,-64.08 240.61,-58.08 240.61,-52.08 240.61,-52.08 240.61,-20 240.61,-20 240.61,-14 246.61,-8 252.61,-8 252.61,-8 409.39,-8 409.39,-8 415.39,-8 421.39,-14 421.39,-20 421.39,-20 421.39,-52.08 421.39,-52.08 421.39,-58.08 415.39,-64.08 409.39,-64.08"/>
<text xml:space="preserve" text-anchor="start" x="249.25" y="-47.69" font-family="Helvetica,sans-Serif" font-size="13.00" fill="#0f172a"> </text>
<text xml:space="preserve" text-anchor="start" x="253" y="-47.69" font-family="Helvetica,sans-Serif" font-weight="bold" font-size="13.00" fill="#0f172a">Decision&#45;surface metrics</text>
<text xml:space="preserve" text-anchor="start" x="256.38" y="-37.54" font-family="Helvetica,sans-Serif" font-size="10.00" fill="#0f172a">visible support, SMART/MISSED/</text>
<text xml:space="preserve" text-anchor="start" x="272.12" y="-27.54" font-family="Helvetica,sans-Serif" font-size="10.00" fill="#0f172a">BLIND/NO&#45;OP, blind fetch,</text>
<text xml:space="preserve" text-anchor="start" x="257.88" y="-14.69" font-family="Helvetica,sans-Serif" font-size="10.00" fill="#0f172a">contradict:gold, semantic&#45;correct</text>
<text xml:space="preserve" text-anchor="start" x="400.38" y="-14.69" font-family="Helvetica,sans-Serif" font-size="13.00" fill="#0f172a"> </text>
</g>
<!-- kimi&#45;&gt;metrics -->
<g id="edge14" class="edge">
<title>kimi&#45;&gt;metrics</title>
<path fill="none" stroke="#64748b" stroke-width="1.1" d="M331,-87.66C331,-87.66 331,-73.34 331,-73.34"/>
<polygon fill="#64748b" stroke="#64748b" stroke-width="1.1" points="333.45,-73.34 331,-66.34 328.55,-73.34 333.45,-73.34"/>
</g>
</g>
</svg>
