<?xml version="1.0" encoding="UTF-8" standalone="no"?>
<!DOCTYPE svg PUBLIC "-//W3C//DTD SVG 1.1//EN"
 "http://www.w3.org/Graphics/SVG/1.1/DTD/svg11.dtd">
<!-- Generated by graphviz version 15.0.0 (20260523.1842)
 -->
<!-- Title: G Pages: 1 -->
<svg width="1125pt" height="316pt"
 viewBox="2.00 2.00 1123.00 314.00" xmlns="http://www.w3.org/2000/svg" xmlns:xlink="http://www.w3.org/1999/xlink">
<g id="graph0" class="graph" transform="scale(1 1) rotate(0) translate(6.16 310.16)">
<title>G</title>
<!-- arch -->
<g id="node1" class="node">
<title>arch</title>
<polygon fill="#f6f8fb" stroke="none" points="0,-235 0,-304 1112.5,-304 1112.5,-235 0,-235"/>
<polygon fill="none" stroke="black" points="0,-235 0,-304 1112.5,-304 1112.5,-235 0,-235"/>
<text xml:space="preserve" text-anchor="start" x="316.25" y="-265.5" font-family="Helvetica,sans-Serif" font-weight="bold" font-size="30.00">Per&#45;URL oracle for agentic search</text>
<text xml:space="preserve" text-anchor="start" x="68" y="-247.85" font-family="Helvetica,sans-Serif" font-size="17.00">fixed query set, model, prompt, tools, iteration budget, judge, and Jina Reader fetcher; only the commercial search surface varies</text>
<polygon fill="#fff2d9" stroke="none" points="0,-144 0,-235 300.25,-235 300.25,-144 0,-144"/>
<polygon fill="none" stroke="black" points="0,-144 0,-235 300.25,-235 300.25,-144 0,-144"/>
<text xml:space="preserve" text-anchor="start" x="11" y="-189.05" font-family="Helvetica,sans-Serif" font-weight="bold" font-size="21.00">100 SealQA&#45;Hard questions</text>
<text xml:space="preserve" text-anchor="start" x="90.88" y="-172.8" font-family="Helvetica,sans-Serif" font-size="16.00">stratified sample</text>
<polygon fill="none" stroke="black" points="300.25,-144 300.25,-235 348.5,-235 348.5,-144 300.25,-144"/>
<text xml:space="preserve" text-anchor="start" x="311.25" y="-179.75" font-family="Helvetica,sans-Serif" font-size="26.00">→</text>
<polygon fill="none" stroke="black" points="348.5,-144 348.5,-235 488.25,-235 488.25,-144 348.5,-144"/>
<text xml:space="preserve" text-anchor="start" x="394" y="-207.9" font-family="Helvetica,sans-Serif" font-weight="bold" font-size="18.00" fill="#e76f51">Brave</text>
<text xml:space="preserve" text-anchor="start" x="393.62" y="-189.9" font-family="Helvetica,sans-Serif" font-weight="bold" font-size="18.00" fill="#2a80b9">Tavily</text>
<text xml:space="preserve" text-anchor="start" x="379" y="-171.9" font-family="Helvetica,sans-Serif" font-weight="bold" font-size="18.00" fill="#2aa876">Firecrawl</text>
<text xml:space="preserve" text-anchor="start" x="359.5" y="-156.75" font-family="Helvetica,sans-Serif" font-size="15.00">provider condition</text>
<polygon fill="none" stroke="black" points="488.25,-144 488.25,-235 536.5,-235 536.5,-144 488.25,-144"/>
<text xml:space="preserve" text-anchor="start" x="499.25" y="-179.75" font-family="Helvetica,sans-Serif" font-size="26.00">→</text>
<polygon fill="#d9ecfa" stroke="none" points="536.5,-144 536.5,-235 820.25,-235 820.25,-144 536.5,-144"/>
<polygon fill="none" stroke="black" points="536.5,-144 536.5,-235 820.25,-235 820.25,-144 536.5,-144"/>
<text xml:space="preserve" text-anchor="start" x="601.88" y="-197.05" font-family="Helvetica,sans-Serif" font-weight="bold" font-size="21.00">Search surface</text>
<text xml:space="preserve" text-anchor="start" x="622.88" y="-180.8" font-family="Helvetica,sans-Serif" font-size="16.00">rank, title, URL,</text>
<text xml:space="preserve" text-anchor="start" x="613.88" y="-164.8" font-family="Helvetica,sans-Serif" font-size="16.00">snippet, metadata</text>
<polygon fill="none" stroke="black" points="820.25,-144 820.25,-235 868.5,-235 868.5,-144 820.25,-144"/>
<text xml:space="preserve" text-anchor="start" x="831.25" y="-179.75" font-family="Helvetica,sans-Serif" font-size="26.00">→</text>
<polygon fill="#f6f8fb" stroke="none" points="868.5,-144 868.5,-235 1112.5,-235 1112.5,-144 868.5,-144"/>
<polygon fill="none" stroke="black" points="868.5,-144 868.5,-235 1112.5,-235 1112.5,-144 868.5,-144"/>
<text xml:space="preserve" text-anchor="start" x="919.62" y="-197.05" font-family="Helvetica,sans-Serif" font-weight="bold" font-size="21.00">GPT&#45;5.4 agent</text>
<text xml:space="preserve" text-anchor="start" x="897.88" y="-180.8" font-family="Helvetica,sans-Serif" font-size="16.00">search_web + fetch_page</text>
<text xml:space="preserve" text-anchor="start" x="928.62" y="-164.8" font-family="Helvetica,sans-Serif" font-size="16.00">max 10 iterations</text>
<polygon fill="none" stroke="black" points="0,-72 0,-144 348.5,-144 348.5,-72 0,-72"/>
<text xml:space="preserve" text-anchor="start" x="95.12" y="-103.5" font-family="Helvetica,sans-Serif" font-size="16.00">Shared page backend</text>
<polygon fill="#efe2f5" stroke="none" points="348.5,-72 348.5,-144 820.25,-144 820.25,-72 348.5,-72"/>
<polygon fill="none" stroke="black" points="348.5,-72 348.5,-144 820.25,-144 820.25,-72 348.5,-72"/>
<text xml:space="preserve" text-anchor="start" x="492.12" y="-107.5" font-family="Helvetica,sans-Serif" font-weight="bold" font-size="20.00">Jina Reader fetcher</text>
<text xml:space="preserve" text-anchor="start" x="482.75" y="-92.25" font-family="Helvetica,sans-Serif" font-size="15.00">only for URLs the agent opens</text>
<polygon fill="none" stroke="black" points="820.25,-72 820.25,-144 868.5,-144 868.5,-72 820.25,-72"/>
<text xml:space="preserve" text-anchor="start" x="832.38" y="-98.25" font-family="Helvetica,sans-Serif" font-size="26.00">↔</text>
<polygon fill="#eceff3" stroke="none" points="868.5,-72 868.5,-144 1112.5,-144 1112.5,-72 868.5,-72"/>
<polygon fill="none" stroke="black" points="868.5,-72 868.5,-144 1112.5,-144 1112.5,-72 868.5,-72"/>
<text xml:space="preserve" text-anchor="start" x="906.5" y="-115" font-family="Helvetica,sans-Serif" font-weight="bold" font-size="20.00">Trajectory JSONL</text>
<text xml:space="preserve" text-anchor="start" x="912.5" y="-99.75" font-family="Helvetica,sans-Serif" font-size="15.00">searches, visible URLs,</text>
<text xml:space="preserve" text-anchor="start" x="921.88" y="-84.75" font-family="Helvetica,sans-Serif" font-size="15.00">fetches, final answer</text>
<polygon fill="none" stroke="black" points="0,0 0,-72 488.25,-72 488.25,0 0,0"/>
<text xml:space="preserve" text-anchor="start" x="100.12" y="-31.5" font-family="Helvetica,sans-Serif" font-size="16.00">Every visible URL is judged after the run</text>
<polygon fill="none" stroke="black" points="488.25,0 488.25,-72 536.5,-72 536.5,0 488.25,0"/>
<text xml:space="preserve" text-anchor="start" x="499.25" y="-26.25" font-family="Helvetica,sans-Serif" font-size="26.00">→</text>
<polygon fill="#efe2f5" stroke="none" points="536.5,0 536.5,-72 820.25,-72 820.25,0 536.5,0"/>
<polygon fill="none" stroke="black" points="536.5,0 536.5,-72 820.25,-72 820.25,0 536.5,0"/>
<text xml:space="preserve" text-anchor="start" x="603.75" y="-35.5" font-family="Helvetica,sans-Serif" font-weight="bold" font-size="20.00">Kimi&#45;K2.6 judge</text>
<text xml:space="preserve" text-anchor="start" x="547.5" y="-20.25" font-family="Helvetica,sans-Serif" font-size="15.00">snippet&#45;only; page&#45;visible when fetched</text>
<polygon fill="none" stroke="black" points="820.25,0 820.25,-72 868.5,-72 868.5,0 820.25,0"/>
<text xml:space="preserve" text-anchor="start" x="831.25" y="-26.25" font-family="Helvetica,sans-Serif" font-size="26.00">→</text>
<polygon fill="#e4f6ea" stroke="none" points="868.5,0 868.5,-72 1112.5,-72 1112.5,0 868.5,0"/>
<polygon fill="none" stroke="black" points="868.5,0 868.5,-72 1112.5,-72 1112.5,0 868.5,0"/>
<text xml:space="preserve" text-anchor="start" x="911" y="-43" font-family="Helvetica,sans-Serif" font-weight="bold" font-size="20.00">Decision metrics</text>
<text xml:space="preserve" text-anchor="start" x="879.5" y="-27.75" font-family="Helvetica,sans-Serif" font-size="15.00">visible support, SMART/MISSED/</text>
<text xml:space="preserve" text-anchor="start" x="891.88" y="-12.75" font-family="Helvetica,sans-Serif" font-size="15.00">BLIND/NO&#45;OP, contamination</text>
</g>
</g>
</svg>
