<?xml version="1.0" encoding="UTF-8" standalone="no"?>
<!DOCTYPE svg PUBLIC "-//W3C//DTD SVG 1.1//EN"
 "http://www.w3.org/Graphics/SVG/1.1/DTD/svg11.dtd">
<!-- Generated by graphviz version 15.0.0 (20260523.1842)
 -->
<!-- Title: G Pages: 1 -->
<svg width="878pt" height="232pt"
 viewBox="3.00 3.00 875.00 229.00" xmlns="http://www.w3.org/2000/svg" xmlns:xlink="http://www.w3.org/1999/xlink">
<g id="graph0" class="graph" transform="scale(1 1) rotate(0) translate(6.88 225.4)">
<title>G</title>
<polygon fill="white" stroke="none" points="-4,4 -4,-222.52 868.09,-222.52 868.09,4 -4,4"/>
<!-- brave -->
<g id="node1" class="node">
<title>brave</title>
<path fill="#fee2e2" stroke="#334155" stroke-width="1.6" d="M252.03,-218.52C252.03,-218.52 12,-218.52 12,-218.52 6,-218.52 0,-212.52 0,-206.52 0,-206.52 0,-12 0,-12 0,-6 6,0 12,0 12,0 252.03,0 252.03,0 258.03,0 264.03,-6 264.03,-12 264.03,-12 264.03,-206.52 264.03,-206.52 264.03,-212.52 258.03,-218.52 252.03,-218.52"/>
<text xml:space="preserve" text-anchor="start" x="98.64" y="-184.96" font-family="Helvetica,sans-Serif" font-weight="bold" font-size="24.00">Brave</text>
<text xml:space="preserve" text-anchor="start" x="66.39" y="-158.01" font-family="Helvetica,sans-Serif" font-size="15.00">snippet&#45;rich surface</text>
<text xml:space="preserve" text-anchor="start" x="62.26" y="-122.36" font-family="Helvetica,sans-Serif" font-weight="bold" font-size="22.00">25/100</text>
<text xml:space="preserve" text-anchor="start" x="128.26" y="-122.36" font-family="Helvetica,sans-Serif" font-size="22.00"> correct</text>
<text xml:space="preserve" text-anchor="start" x="14.64" y="-96.51" font-family="Helvetica,sans-Serif" font-size="14.00">Pre&#45;fetch</text>
<polygon fill="#e11d48" stroke="none" points="81.39,-92.76 81.39,-107.76 193.39,-107.76 193.39,-92.76 81.39,-92.76"/>
<polygon fill="#e5e7eb" stroke="none" points="193.39,-92.76 193.39,-107.76 197.39,-107.76 197.39,-92.76 193.39,-92.76"/>
<text xml:space="preserve" text-anchor="start" x="234.39" y="-95.46" font-family="Helvetica,sans-Serif" font-weight="bold" font-size="14.00">30</text>
<text xml:space="preserve" text-anchor="start" x="14.64" y="-69.51" font-family="Helvetica,sans-Serif" font-size="14.00">Rank&#45;1</text>
<polygon fill="#e11d48" stroke="none" points="81.39,-65.76 81.39,-80.76 112.39,-80.76 112.39,-65.76 81.39,-65.76"/>
<polygon fill="#e5e7eb" stroke="none" points="112.39,-65.76 112.39,-80.76 197.39,-80.76 197.39,-65.76 112.39,-65.76"/>
<text xml:space="preserve" text-anchor="start" x="221.64" y="-68.46" font-family="Helvetica,sans-Serif" font-weight="bold" font-size="14.00">13%</text>
<text xml:space="preserve" text-anchor="start" x="14.64" y="-42.51" font-family="Helvetica,sans-Serif" font-size="14.00">Contra</text>
<polygon fill="#e11d48" stroke="none" points="81.39,-38.76 81.39,-53.76 123.39,-53.76 123.39,-38.76 81.39,-38.76"/>
<polygon fill="#e5e7eb" stroke="none" points="123.39,-38.76 123.39,-53.76 197.39,-53.76 197.39,-38.76 123.39,-38.76"/>
<text xml:space="preserve" text-anchor="start" x="223.14" y="-41.46" font-family="Helvetica,sans-Serif" font-weight="bold" font-size="14.00">0.92</text>
<text xml:space="preserve" text-anchor="start" x="14.64" y="-15.51" font-family="Helvetica,sans-Serif" font-size="14.00">Fetch</text>
<polygon fill="#e11d48" stroke="none" points="81.39,-11.76 81.39,-26.76 173.39,-26.76 173.39,-11.76 81.39,-11.76"/>
<polygon fill="#e5e7eb" stroke="none" points="173.39,-11.76 173.39,-26.76 197.39,-26.76 197.39,-11.76 173.39,-11.76"/>
<text xml:space="preserve" text-anchor="start" x="221.64" y="-14.46" font-family="Helvetica,sans-Serif" font-weight="bold" font-size="14.00">65%</text>
</g>
<!-- tavily -->
<g id="node2" class="node">
<title>tavily</title>
<path fill="#dbeafe" stroke="#334155" stroke-width="1.6" d="M552.06,-218.52C552.06,-218.52 312.03,-218.52 312.03,-218.52 306.03,-218.52 300.03,-212.52 300.03,-206.52 300.03,-206.52 300.03,-12 300.03,-12 300.03,-6 306.03,0 312.03,0 312.03,0 552.06,0 552.06,0 558.06,0 564.06,-6 564.06,-12 564.06,-12 564.06,-206.52 564.06,-206.52 564.06,-212.52 558.06,-218.52 552.06,-218.52"/>
<text xml:space="preserve" text-anchor="start" x="398.67" y="-184.96" font-family="Helvetica,sans-Serif" font-weight="bold" font-size="24.00">Tavily</text>
<text xml:space="preserve" text-anchor="start" x="355.17" y="-158.01" font-family="Helvetica,sans-Serif" font-size="15.00">rank&#45;one concentration</text>
<text xml:space="preserve" text-anchor="start" x="362.29" y="-122.36" font-family="Helvetica,sans-Serif" font-weight="bold" font-size="22.00">25/100</text>
<text xml:space="preserve" text-anchor="start" x="428.29" y="-122.36" font-family="Helvetica,sans-Serif" font-size="22.00"> correct</text>
<text xml:space="preserve" text-anchor="start" x="314.67" y="-96.51" font-family="Helvetica,sans-Serif" font-size="14.00">Pre&#45;fetch</text>
<polygon fill="#2563eb" stroke="none" points="381.42,-92.76 381.42,-107.76 443.42,-107.76 443.42,-92.76 381.42,-92.76"/>
<polygon fill="#e5e7eb" stroke="none" points="443.42,-92.76 443.42,-107.76 497.42,-107.76 497.42,-92.76 443.42,-92.76"/>
<text xml:space="preserve" text-anchor="start" x="534.42" y="-95.46" font-family="Helvetica,sans-Serif" font-weight="bold" font-size="14.00">16</text>
<text xml:space="preserve" text-anchor="start" x="314.67" y="-69.51" font-family="Helvetica,sans-Serif" font-size="14.00">Rank&#45;1</text>
<polygon fill="#2563eb" stroke="none" points="381.42,-65.76 381.42,-80.76 493.42,-80.76 493.42,-65.76 381.42,-65.76"/>
<polygon fill="#e5e7eb" stroke="none" points="493.42,-65.76 493.42,-80.76 497.42,-80.76 497.42,-65.76 493.42,-65.76"/>
<text xml:space="preserve" text-anchor="start" x="521.67" y="-68.46" font-family="Helvetica,sans-Serif" font-weight="bold" font-size="14.00">50%</text>
<text xml:space="preserve" text-anchor="start" x="314.67" y="-42.51" font-family="Helvetica,sans-Serif" font-size="14.00">Contra</text>
<polygon fill="#2563eb" stroke="none" points="381.42,-38.76 381.42,-53.76 464.42,-53.76 464.42,-38.76 381.42,-38.76"/>
<polygon fill="#e5e7eb" stroke="none" points="464.42,-38.76 464.42,-53.76 497.42,-53.76 497.42,-38.76 464.42,-38.76"/>
<text xml:space="preserve" text-anchor="start" x="523.17" y="-41.46" font-family="Helvetica,sans-Serif" font-weight="bold" font-size="14.00">1.87</text>
<text xml:space="preserve" text-anchor="start" x="314.67" y="-15.51" font-family="Helvetica,sans-Serif" font-size="14.00">Fetch</text>
<polygon fill="#2563eb" stroke="none" points="381.42,-11.76 381.42,-26.76 488.42,-26.76 488.42,-11.76 381.42,-11.76"/>
<polygon fill="#e5e7eb" stroke="none" points="488.42,-11.76 488.42,-26.76 497.42,-26.76 497.42,-11.76 488.42,-11.76"/>
<text xml:space="preserve" text-anchor="start" x="521.67" y="-14.46" font-family="Helvetica,sans-Serif" font-weight="bold" font-size="14.00">76%</text>
</g>
<!-- brave&#45;&gt;tavily -->
<!-- firecrawl -->
<g id="node3" class="node">
<title>firecrawl</title>
<path fill="#dcfce7" stroke="#334155" stroke-width="1.6" d="M852.09,-218.52C852.09,-218.52 612.06,-218.52 612.06,-218.52 606.06,-218.52 600.06,-212.52 600.06,-206.52 600.06,-206.52 600.06,-12 600.06,-12 600.06,-6 606.06,0 612.06,0 612.06,0 852.09,0 852.09,0 858.09,0 864.09,-6 864.09,-12 864.09,-12 864.09,-206.52 864.09,-206.52 864.09,-212.52 858.09,-218.52 852.09,-218.52"/>
<text xml:space="preserve" text-anchor="start" x="679.2" y="-184.96" font-family="Helvetica,sans-Serif" font-weight="bold" font-size="24.00">Firecrawl</text>
<text xml:space="preserve" text-anchor="start" x="674.32" y="-158.01" font-family="Helvetica,sans-Serif" font-size="15.00">broad exploration</text>
<text xml:space="preserve" text-anchor="start" x="662.32" y="-122.36" font-family="Helvetica,sans-Serif" font-weight="bold" font-size="22.00">26/100</text>
<text xml:space="preserve" text-anchor="start" x="728.32" y="-122.36" font-family="Helvetica,sans-Serif" font-size="22.00"> correct</text>
<text xml:space="preserve" text-anchor="start" x="614.7" y="-96.51" font-family="Helvetica,sans-Serif" font-size="14.00">Pre&#45;fetch</text>
<polygon fill="#16a34a" stroke="none" points="681.45,-92.76 681.45,-107.76 743.45,-107.76 743.45,-92.76 681.45,-92.76"/>
<polygon fill="#e5e7eb" stroke="none" points="743.45,-92.76 743.45,-107.76 797.45,-107.76 797.45,-92.76 743.45,-92.76"/>
<text xml:space="preserve" text-anchor="start" x="834.45" y="-95.46" font-family="Helvetica,sans-Serif" font-weight="bold" font-size="14.00">16</text>
<text xml:space="preserve" text-anchor="start" x="614.7" y="-69.51" font-family="Helvetica,sans-Serif" font-size="14.00">Rank&#45;1</text>
<polygon fill="#16a34a" stroke="none" points="681.45,-65.76 681.45,-80.76 712.45,-80.76 712.45,-65.76 681.45,-65.76"/>
<polygon fill="#e5e7eb" stroke="none" points="712.45,-65.76 712.45,-80.76 797.45,-80.76 797.45,-65.76 712.45,-65.76"/>
<text xml:space="preserve" text-anchor="start" x="821.7" y="-68.46" font-family="Helvetica,sans-Serif" font-weight="bold" font-size="14.00">13%</text>
<text xml:space="preserve" text-anchor="start" x="614.7" y="-42.51" font-family="Helvetica,sans-Serif" font-size="14.00">Contra</text>
<polygon fill="#16a34a" stroke="none" points="681.45,-38.76 681.45,-53.76 793.45,-53.76 793.45,-38.76 681.45,-38.76"/>
<polygon fill="#e5e7eb" stroke="none" points="793.45,-38.76 793.45,-53.76 797.45,-53.76 797.45,-38.76 793.45,-38.76"/>
<text xml:space="preserve" text-anchor="start" x="823.2" y="-41.46" font-family="Helvetica,sans-Serif" font-weight="bold" font-size="14.00">2.59</text>
<text xml:space="preserve" text-anchor="start" x="614.7" y="-15.51" font-family="Helvetica,sans-Serif" font-size="14.00">Fetch</text>
<polygon fill="#16a34a" stroke="none" points="681.45,-11.76 681.45,-26.76 793.45,-26.76 793.45,-11.76 681.45,-11.76"/>
<polygon fill="#e5e7eb" stroke="none" points="793.45,-11.76 793.45,-26.76 797.45,-26.76 797.45,-11.76 793.45,-11.76"/>
<text xml:space="preserve" text-anchor="start" x="821.7" y="-14.46" font-family="Helvetica,sans-Serif" font-weight="bold" font-size="14.00">81%</text>
</g>
<!-- tavily&#45;&gt;firecrawl -->
</g>
</svg>
