<?xml version="1.0" encoding="UTF-8" standalone="no"?>
<!DOCTYPE svg PUBLIC "-//W3C//DTD SVG 1.1//EN"
 "http://www.w3.org/Graphics/SVG/1.1/DTD/svg11.dtd">
<!-- Generated by graphviz version 15.0.0 (20260523.1842)
 -->
<!-- Title: G Pages: 1 -->
<svg width="876pt" height="232pt"
 viewBox="3.00 3.00 873.00 229.00" xmlns="http://www.w3.org/2000/svg" xmlns:xlink="http://www.w3.org/1999/xlink">
<g id="graph0" class="graph" transform="scale(1 1) rotate(0) translate(6.88 225.4)">
<title>G</title>
<polygon fill="white" stroke="none" points="-4,4 -4,-222.52 865.84,-222.52 865.84,4 -4,4"/>
<!-- brave -->
<g id="node1" class="node">
<title>brave</title>
<path fill="#fee2e2" stroke="#334155" stroke-width="1.6" d="M251.28,-218.52C251.28,-218.52 12,-218.52 12,-218.52 6,-218.52 0,-212.52 0,-206.52 0,-206.52 0,-12 0,-12 0,-6 6,0 12,0 12,0 251.28,0 251.28,0 257.28,0 263.28,-6 263.28,-12 263.28,-12 263.28,-206.52 263.28,-206.52 263.28,-212.52 257.28,-218.52 251.28,-218.52"/>
<text xml:space="preserve" text-anchor="start" x="98.26" y="-184.96" font-family="Helvetica,sans-Serif" font-weight="bold" font-size="24.00">Brave</text>
<text xml:space="preserve" text-anchor="start" x="66.01" y="-158.01" font-family="Helvetica,sans-Serif" font-size="15.00">snippet&#45;rich surface</text>
<text xml:space="preserve" text-anchor="start" x="61.89" y="-122.36" font-family="Helvetica,sans-Serif" font-weight="bold" font-size="22.00">25/100</text>
<text xml:space="preserve" text-anchor="start" x="127.89" y="-122.36" font-family="Helvetica,sans-Serif" font-size="22.00"> correct</text>
<text xml:space="preserve" text-anchor="start" x="14.64" y="-96.51" font-family="Helvetica,sans-Serif" font-size="14.00">Support</text>
<polygon fill="#e11d48" stroke="none" points="80.64,-92.76 80.64,-107.76 192.64,-107.76 192.64,-92.76 80.64,-92.76"/>
<polygon fill="#e5e7eb" stroke="none" points="192.64,-92.76 192.64,-107.76 196.64,-107.76 196.64,-92.76 192.64,-92.76"/>
<text xml:space="preserve" text-anchor="start" x="233.64" y="-95.46" font-family="Helvetica,sans-Serif" font-weight="bold" font-size="14.00">33</text>
<text xml:space="preserve" text-anchor="start" x="14.64" y="-69.51" font-family="Helvetica,sans-Serif" font-size="14.00">Rank&#45;1</text>
<polygon fill="#e11d48" stroke="none" points="80.64,-65.76 80.64,-80.76 110.64,-80.76 110.64,-65.76 80.64,-65.76"/>
<polygon fill="#e5e7eb" stroke="none" points="110.64,-65.76 110.64,-80.76 196.64,-80.76 196.64,-65.76 110.64,-65.76"/>
<text xml:space="preserve" text-anchor="start" x="220.89" y="-68.46" font-family="Helvetica,sans-Serif" font-weight="bold" font-size="14.00">12%</text>
<text xml:space="preserve" text-anchor="start" x="14.64" y="-42.51" font-family="Helvetica,sans-Serif" font-size="14.00">Contra</text>
<polygon fill="#e11d48" stroke="none" points="80.64,-38.76 80.64,-53.76 122.64,-53.76 122.64,-38.76 80.64,-38.76"/>
<polygon fill="#e5e7eb" stroke="none" points="122.64,-38.76 122.64,-53.76 196.64,-53.76 196.64,-38.76 122.64,-38.76"/>
<text xml:space="preserve" text-anchor="start" x="222.39" y="-41.46" font-family="Helvetica,sans-Serif" font-weight="bold" font-size="14.00">0.92</text>
<text xml:space="preserve" text-anchor="start" x="14.64" y="-15.51" font-family="Helvetica,sans-Serif" font-size="14.00">Fetch</text>
<polygon fill="#e11d48" stroke="none" points="80.64,-11.76 80.64,-26.76 172.64,-26.76 172.64,-11.76 80.64,-11.76"/>
<polygon fill="#e5e7eb" stroke="none" points="172.64,-11.76 172.64,-26.76 196.64,-26.76 196.64,-11.76 172.64,-11.76"/>
<text xml:space="preserve" text-anchor="start" x="220.89" y="-14.46" font-family="Helvetica,sans-Serif" font-weight="bold" font-size="14.00">65%</text>
</g>
<!-- tavily -->
<g id="node2" class="node">
<title>tavily</title>
<path fill="#dbeafe" stroke="#334155" stroke-width="1.6" d="M550.56,-218.52C550.56,-218.52 311.28,-218.52 311.28,-218.52 305.28,-218.52 299.28,-212.52 299.28,-206.52 299.28,-206.52 299.28,-12 299.28,-12 299.28,-6 305.28,0 311.28,0 311.28,0 550.56,0 550.56,0 556.56,0 562.56,-6 562.56,-12 562.56,-12 562.56,-206.52 562.56,-206.52 562.56,-212.52 556.56,-218.52 550.56,-218.52"/>
<text xml:space="preserve" text-anchor="start" x="397.54" y="-184.96" font-family="Helvetica,sans-Serif" font-weight="bold" font-size="24.00">Tavily</text>
<text xml:space="preserve" text-anchor="start" x="354.04" y="-158.01" font-family="Helvetica,sans-Serif" font-size="15.00">rank&#45;one concentration</text>
<text xml:space="preserve" text-anchor="start" x="361.17" y="-122.36" font-family="Helvetica,sans-Serif" font-weight="bold" font-size="22.00">25/100</text>
<text xml:space="preserve" text-anchor="start" x="427.17" y="-122.36" font-family="Helvetica,sans-Serif" font-size="22.00"> correct</text>
<text xml:space="preserve" text-anchor="start" x="313.92" y="-96.51" font-family="Helvetica,sans-Serif" font-size="14.00">Support</text>
<polygon fill="#2563eb" stroke="none" points="379.92,-92.76 379.92,-107.76 462.92,-107.76 462.92,-92.76 379.92,-92.76"/>
<polygon fill="#e5e7eb" stroke="none" points="462.92,-92.76 462.92,-107.76 495.92,-107.76 495.92,-92.76 462.92,-92.76"/>
<text xml:space="preserve" text-anchor="start" x="532.92" y="-95.46" font-family="Helvetica,sans-Serif" font-weight="bold" font-size="14.00">24</text>
<text xml:space="preserve" text-anchor="start" x="313.92" y="-69.51" font-family="Helvetica,sans-Serif" font-size="14.00">Rank&#45;1</text>
<polygon fill="#2563eb" stroke="none" points="379.92,-65.76 379.92,-80.76 491.92,-80.76 491.92,-65.76 379.92,-65.76"/>
<polygon fill="#e5e7eb" stroke="none" points="491.92,-65.76 491.92,-80.76 495.92,-80.76 495.92,-65.76 491.92,-65.76"/>
<text xml:space="preserve" text-anchor="start" x="520.17" y="-68.46" font-family="Helvetica,sans-Serif" font-weight="bold" font-size="14.00">48%</text>
<text xml:space="preserve" text-anchor="start" x="313.92" y="-42.51" font-family="Helvetica,sans-Serif" font-size="14.00">Contra</text>
<polygon fill="#2563eb" stroke="none" points="379.92,-38.76 379.92,-53.76 462.92,-53.76 462.92,-38.76 379.92,-38.76"/>
<polygon fill="#e5e7eb" stroke="none" points="462.92,-38.76 462.92,-53.76 495.92,-53.76 495.92,-38.76 462.92,-38.76"/>
<text xml:space="preserve" text-anchor="start" x="521.67" y="-41.46" font-family="Helvetica,sans-Serif" font-weight="bold" font-size="14.00">1.87</text>
<text xml:space="preserve" text-anchor="start" x="313.92" y="-15.51" font-family="Helvetica,sans-Serif" font-size="14.00">Fetch</text>
<polygon fill="#2563eb" stroke="none" points="379.92,-11.76 379.92,-26.76 486.92,-26.76 486.92,-11.76 379.92,-11.76"/>
<polygon fill="#e5e7eb" stroke="none" points="486.92,-11.76 486.92,-26.76 495.92,-26.76 495.92,-11.76 486.92,-11.76"/>
<text xml:space="preserve" text-anchor="start" x="520.17" y="-14.46" font-family="Helvetica,sans-Serif" font-weight="bold" font-size="14.00">76%</text>
</g>
<!-- brave&#45;&gt;tavily -->
<!-- firecrawl -->
<g id="node3" class="node">
<title>firecrawl</title>
<path fill="#dcfce7" stroke="#334155" stroke-width="1.6" d="M849.84,-218.52C849.84,-218.52 610.56,-218.52 610.56,-218.52 604.56,-218.52 598.56,-212.52 598.56,-206.52 598.56,-206.52 598.56,-12 598.56,-12 598.56,-6 604.56,0 610.56,0 610.56,0 849.84,0 849.84,0 855.84,0 861.84,-6 861.84,-12 861.84,-12 861.84,-206.52 861.84,-206.52 861.84,-212.52 855.84,-218.52 849.84,-218.52"/>
<text xml:space="preserve" text-anchor="start" x="677.32" y="-184.96" font-family="Helvetica,sans-Serif" font-weight="bold" font-size="24.00">Firecrawl</text>
<text xml:space="preserve" text-anchor="start" x="672.45" y="-158.01" font-family="Helvetica,sans-Serif" font-size="15.00">broad exploration</text>
<text xml:space="preserve" text-anchor="start" x="660.45" y="-122.36" font-family="Helvetica,sans-Serif" font-weight="bold" font-size="22.00">26/100</text>
<text xml:space="preserve" text-anchor="start" x="726.45" y="-122.36" font-family="Helvetica,sans-Serif" font-size="22.00"> correct</text>
<text xml:space="preserve" text-anchor="start" x="613.2" y="-96.51" font-family="Helvetica,sans-Serif" font-size="14.00">Support</text>
<polygon fill="#16a34a" stroke="none" points="679.2,-92.76 679.2,-107.76 745.2,-107.76 745.2,-92.76 679.2,-92.76"/>
<polygon fill="#e5e7eb" stroke="none" points="745.2,-92.76 745.2,-107.76 795.2,-107.76 795.2,-92.76 745.2,-92.76"/>
<text xml:space="preserve" text-anchor="start" x="832.2" y="-95.46" font-family="Helvetica,sans-Serif" font-weight="bold" font-size="14.00">19</text>
<text xml:space="preserve" text-anchor="start" x="613.2" y="-69.51" font-family="Helvetica,sans-Serif" font-size="14.00">Rank&#45;1</text>
<polygon fill="#16a34a" stroke="none" points="679.2,-65.76 679.2,-80.76 707.2,-80.76 707.2,-65.76 679.2,-65.76"/>
<polygon fill="#e5e7eb" stroke="none" points="707.2,-65.76 707.2,-80.76 795.2,-80.76 795.2,-65.76 707.2,-65.76"/>
<text xml:space="preserve" text-anchor="start" x="819.45" y="-68.46" font-family="Helvetica,sans-Serif" font-weight="bold" font-size="14.00">11%</text>
<text xml:space="preserve" text-anchor="start" x="613.2" y="-42.51" font-family="Helvetica,sans-Serif" font-size="14.00">Contra</text>
<polygon fill="#16a34a" stroke="none" points="679.2,-38.76 679.2,-53.76 791.2,-53.76 791.2,-38.76 679.2,-38.76"/>
<polygon fill="#e5e7eb" stroke="none" points="791.2,-38.76 791.2,-53.76 795.2,-53.76 795.2,-38.76 791.2,-38.76"/>
<text xml:space="preserve" text-anchor="start" x="820.95" y="-41.46" font-family="Helvetica,sans-Serif" font-weight="bold" font-size="14.00">2.59</text>
<text xml:space="preserve" text-anchor="start" x="613.2" y="-15.51" font-family="Helvetica,sans-Serif" font-size="14.00">Fetch</text>
<polygon fill="#16a34a" stroke="none" points="679.2,-11.76 679.2,-26.76 791.2,-26.76 791.2,-11.76 679.2,-11.76"/>
<polygon fill="#e5e7eb" stroke="none" points="791.2,-11.76 791.2,-26.76 795.2,-26.76 795.2,-11.76 791.2,-11.76"/>
<text xml:space="preserve" text-anchor="start" x="819.45" y="-14.46" font-family="Helvetica,sans-Serif" font-weight="bold" font-size="14.00">81%</text>
</g>
<!-- tavily&#45;&gt;firecrawl -->
</g>
</svg>
