<?xml version="1.0" encoding="UTF-8" standalone="no"?>
<!DOCTYPE svg PUBLIC "-//W3C//DTD SVG 1.1//EN"
 "http://www.w3.org/Graphics/SVG/1.1/DTD/svg11.dtd">
<!-- Generated by graphviz version 15.0.0 (20260523.1842)
 -->
<!-- Title: G Pages: 1 -->
<svg width="1192pt" height="346pt"
 viewBox="1.00 1.00 1190.00 344.00" xmlns="http://www.w3.org/2000/svg" xmlns:xlink="http://www.w3.org/1999/xlink">
<g id="graph0" class="graph" transform="scale(1 1) rotate(0) translate(5.44 340.44)">
<title>G</title>
<!-- partition -->
<g id="node1" class="node">
<title>partition</title>
<polygon fill="#f6f8fb" stroke="none" points="0,-284.5 0,-335 1181,-335 1181,-284.5 0,-284.5"/>
<polygon fill="none" stroke="black" points="0,-284.5 0,-335 1181,-335 1181,-284.5 0,-284.5"/>
<text xml:space="preserve" text-anchor="start" x="206.5" y="-298.4" font-family="Helvetica,sans-Serif" font-weight="bold" font-size="28.00">Decision partition: what the agent did with visible support</text>
<polygon fill="none" stroke="black" points="0,-246 0,-284.5 117.25,-284.5 117.25,-246 0,-246"/>
<text xml:space="preserve" text-anchor="start" x="26.38" y="-259.3" font-family="Helvetica,sans-Serif" font-weight="bold" font-size="16.00">Provider</text>
<polygon fill="none" stroke="black" points="117.25,-246 117.25,-284.5 392,-284.5 392,-246 117.25,-246"/>
<text xml:space="preserve" text-anchor="start" x="128.25" y="-259.3" font-family="Helvetica,sans-Serif" font-weight="bold" font-size="16.00">visible support + fetched support</text>
<polygon fill="none" stroke="black" points="392,-246 392,-284.5 705.75,-284.5 705.75,-246 392,-246"/>
<text xml:space="preserve" text-anchor="start" x="403" y="-259.3" font-family="Helvetica,sans-Serif" font-weight="bold" font-size="16.00">visible support + did not fetch support</text>
<polygon fill="none" stroke="black" points="705.75,-246 705.75,-284.5 940.75,-284.5 940.75,-246 705.75,-246"/>
<text xml:space="preserve" text-anchor="start" x="716.75" y="-259.3" font-family="Helvetica,sans-Serif" font-weight="bold" font-size="16.00">no visible support + fetched</text>
<polygon fill="none" stroke="black" points="940.75,-246 940.75,-284.5 1181,-284.5 1181,-246 940.75,-246"/>
<text xml:space="preserve" text-anchor="start" x="951.75" y="-259.3" font-family="Helvetica,sans-Serif" font-weight="bold" font-size="16.00">no visible support + no fetch</text>
<polygon fill="#e76f51" stroke="none" points="0,-164 0,-246 117.25,-246 117.25,-164 0,-164"/>
<polygon fill="none" stroke="black" points="0,-164 0,-246 117.25,-246 117.25,-164 0,-164"/>
<text xml:space="preserve" text-anchor="start" x="28.62" y="-196.35" font-family="Helvetica,sans-Serif" font-weight="bold" font-size="22.00" fill="white">Brave</text>
<polygon fill="#238b45" stroke="none" points="117.25,-164 117.25,-246 392,-246 392,-164 117.25,-164"/>
<polygon fill="none" stroke="black" points="117.25,-164 117.25,-246 392,-246 392,-164 117.25,-164"/>
<text xml:space="preserve" text-anchor="start" x="219.38" y="-217" font-family="Helvetica,sans-Serif" font-weight="bold" font-size="20.00" fill="white">SMART</text>
<text xml:space="preserve" text-anchor="start" x="213.38" y="-197" font-family="Helvetica,sans-Serif" font-size="20.00" fill="white">8 queries</text>
<text xml:space="preserve" text-anchor="start" x="201.75" y="-177" font-family="Helvetica,sans-Serif" font-size="20.00" fill="white">3 EM (38%)</text>
<polygon fill="#f2c94c" stroke="none" points="392,-164 392,-246 705.75,-246 705.75,-164 392,-164"/>
<polygon fill="none" stroke="black" points="392,-164 392,-246 705.75,-246 705.75,-164 392,-164"/>
<text xml:space="preserve" text-anchor="start" x="510.62" y="-217" font-family="Helvetica,sans-Serif" font-weight="bold" font-size="20.00">MISSED</text>
<text xml:space="preserve" text-anchor="start" x="502" y="-197" font-family="Helvetica,sans-Serif" font-size="20.00">25 queries</text>
<text xml:space="preserve" text-anchor="start" x="496" y="-177" font-family="Helvetica,sans-Serif" font-size="20.00">9 EM (36%)</text>
<polygon fill="#d95f02" stroke="none" points="705.75,-164 705.75,-246 940.75,-246 940.75,-164 705.75,-164"/>
<polygon fill="none" stroke="black" points="705.75,-164 705.75,-246 940.75,-246 940.75,-164 705.75,-164"/>
<text xml:space="preserve" text-anchor="start" x="793.25" y="-217" font-family="Helvetica,sans-Serif" font-weight="bold" font-size="20.00" fill="white">BLIND</text>
<text xml:space="preserve" text-anchor="start" x="776.38" y="-197" font-family="Helvetica,sans-Serif" font-size="20.00" fill="white">51 queries</text>
<text xml:space="preserve" text-anchor="start" x="770.38" y="-177" font-family="Helvetica,sans-Serif" font-size="20.00" fill="white">9 EM (18%)</text>
<polygon fill="#a8b3b5" stroke="none" points="940.75,-164 940.75,-246 1181,-246 1181,-164 940.75,-164"/>
<polygon fill="none" stroke="black" points="940.75,-164 940.75,-246 1181,-246 1181,-164 940.75,-164"/>
<text xml:space="preserve" text-anchor="start" x="1027.88" y="-217" font-family="Helvetica,sans-Serif" font-weight="bold" font-size="20.00">NO&#45;OP</text>
<text xml:space="preserve" text-anchor="start" x="1014" y="-197" font-family="Helvetica,sans-Serif" font-size="20.00">16 queries</text>
<text xml:space="preserve" text-anchor="start" x="1013.62" y="-177" font-family="Helvetica,sans-Serif" font-size="20.00">0 EM (0%)</text>
<polygon fill="#2a80b9" stroke="none" points="0,-82 0,-164 117.25,-164 117.25,-82 0,-82"/>
<polygon fill="none" stroke="black" points="0,-82 0,-164 117.25,-164 117.25,-82 0,-82"/>
<text xml:space="preserve" text-anchor="start" x="28.62" y="-114.35" font-family="Helvetica,sans-Serif" font-weight="bold" font-size="22.00" fill="white">Tavily</text>
<polygon fill="#238b45" stroke="none" points="117.25,-82 117.25,-164 392,-164 392,-82 117.25,-82"/>
<polygon fill="none" stroke="black" points="117.25,-82 117.25,-164 392,-164 392,-82 117.25,-82"/>
<text xml:space="preserve" text-anchor="start" x="219.38" y="-135" font-family="Helvetica,sans-Serif" font-weight="bold" font-size="20.00" fill="white">SMART</text>
<text xml:space="preserve" text-anchor="start" x="208.5" y="-115" font-family="Helvetica,sans-Serif" font-size="20.00" fill="white">11 queries</text>
<text xml:space="preserve" text-anchor="start" x="201.75" y="-95" font-family="Helvetica,sans-Serif" font-size="20.00" fill="white">7 EM (64%)</text>
<polygon fill="#f2c94c" stroke="none" points="392,-82 392,-164 705.75,-164 705.75,-82 392,-82"/>
<polygon fill="none" stroke="black" points="392,-82 392,-164 705.75,-164 705.75,-82 392,-82"/>
<text xml:space="preserve" text-anchor="start" x="510.62" y="-135" font-family="Helvetica,sans-Serif" font-weight="bold" font-size="20.00">MISSED</text>
<text xml:space="preserve" text-anchor="start" x="502" y="-115" font-family="Helvetica,sans-Serif" font-size="20.00">13 queries</text>
<text xml:space="preserve" text-anchor="start" x="496" y="-95" font-family="Helvetica,sans-Serif" font-size="20.00">5 EM (38%)</text>
<polygon fill="#d95f02" stroke="none" points="705.75,-82 705.75,-164 940.75,-164 940.75,-82 705.75,-82"/>
<polygon fill="none" stroke="black" points="705.75,-82 705.75,-164 940.75,-164 940.75,-82 705.75,-82"/>
<text xml:space="preserve" text-anchor="start" x="793.25" y="-135" font-family="Helvetica,sans-Serif" font-weight="bold" font-size="20.00" fill="white">BLIND</text>
<text xml:space="preserve" text-anchor="start" x="776.38" y="-115" font-family="Helvetica,sans-Serif" font-size="20.00" fill="white">55 queries</text>
<text xml:space="preserve" text-anchor="start" x="770.38" y="-95" font-family="Helvetica,sans-Serif" font-size="20.00" fill="white">9 EM (16%)</text>
<polygon fill="#a8b3b5" stroke="none" points="940.75,-82 940.75,-164 1181,-164 1181,-82 940.75,-82"/>
<polygon fill="none" stroke="black" points="940.75,-82 940.75,-164 1181,-164 1181,-82 940.75,-82"/>
<text xml:space="preserve" text-anchor="start" x="1027.88" y="-135" font-family="Helvetica,sans-Serif" font-weight="bold" font-size="20.00">NO&#45;OP</text>
<text xml:space="preserve" text-anchor="start" x="1014" y="-115" font-family="Helvetica,sans-Serif" font-size="20.00">21 queries</text>
<text xml:space="preserve" text-anchor="start" x="1013.62" y="-95" font-family="Helvetica,sans-Serif" font-size="20.00">0 EM (0%)</text>
<polygon fill="#2aa876" stroke="none" points="0,0 0,-82 117.25,-82 117.25,0 0,0"/>
<polygon fill="none" stroke="black" points="0,0 0,-82 117.25,-82 117.25,0 0,0"/>
<text xml:space="preserve" text-anchor="start" x="11" y="-32.35" font-family="Helvetica,sans-Serif" font-weight="bold" font-size="22.00" fill="white">Firecrawl</text>
<polygon fill="#238b45" stroke="none" points="117.25,0 117.25,-82 392,-82 392,0 117.25,0"/>
<polygon fill="none" stroke="black" points="117.25,0 117.25,-82 392,-82 392,0 117.25,0"/>
<text xml:space="preserve" text-anchor="start" x="219.38" y="-53" font-family="Helvetica,sans-Serif" font-weight="bold" font-size="20.00" fill="white">SMART</text>
<text xml:space="preserve" text-anchor="start" x="213.38" y="-33" font-family="Helvetica,sans-Serif" font-size="20.00" fill="white">7 queries</text>
<text xml:space="preserve" text-anchor="start" x="201.75" y="-13" font-family="Helvetica,sans-Serif" font-size="20.00" fill="white">2 EM (29%)</text>
<polygon fill="#f2c94c" stroke="none" points="392,0 392,-82 705.75,-82 705.75,0 392,0"/>
<polygon fill="none" stroke="black" points="392,0 392,-82 705.75,-82 705.75,0 392,0"/>
<text xml:space="preserve" text-anchor="start" x="510.62" y="-53" font-family="Helvetica,sans-Serif" font-weight="bold" font-size="20.00">MISSED</text>
<text xml:space="preserve" text-anchor="start" x="502" y="-33" font-family="Helvetica,sans-Serif" font-size="20.00">12 queries</text>
<text xml:space="preserve" text-anchor="start" x="496" y="-13" font-family="Helvetica,sans-Serif" font-size="20.00">5 EM (42%)</text>
<polygon fill="#d95f02" stroke="none" points="705.75,0 705.75,-82 940.75,-82 940.75,0 705.75,0"/>
<polygon fill="none" stroke="black" points="705.75,0 705.75,-82 940.75,-82 940.75,0 705.75,0"/>
<text xml:space="preserve" text-anchor="start" x="793.25" y="-53" font-family="Helvetica,sans-Serif" font-weight="bold" font-size="20.00" fill="white">BLIND</text>
<text xml:space="preserve" text-anchor="start" x="776.38" y="-33" font-family="Helvetica,sans-Serif" font-size="20.00" fill="white">67 queries</text>
<text xml:space="preserve" text-anchor="start" x="764.75" y="-13" font-family="Helvetica,sans-Serif" font-size="20.00" fill="white">16 EM (24%)</text>
<polygon fill="#a8b3b5" stroke="none" points="940.75,0 940.75,-82 1181,-82 1181,0 940.75,0"/>
<polygon fill="none" stroke="black" points="940.75,0 940.75,-82 1181,-82 1181,0 940.75,0"/>
<text xml:space="preserve" text-anchor="start" x="1027.88" y="-53" font-family="Helvetica,sans-Serif" font-weight="bold" font-size="20.00">NO&#45;OP</text>
<text xml:space="preserve" text-anchor="start" x="1014" y="-33" font-family="Helvetica,sans-Serif" font-size="20.00">14 queries</text>
<text xml:space="preserve" text-anchor="start" x="1013.62" y="-13" font-family="Helvetica,sans-Serif" font-size="20.00">0 EM (0%)</text>
</g>
</g>
</svg>
