<?xml version="1.0" encoding="UTF-8" standalone="no"?>
<!DOCTYPE svg PUBLIC "-//W3C//DTD SVG 1.1//EN"
 "http://www.w3.org/Graphics/SVG/1.1/DTD/svg11.dtd">
<!-- Generated by graphviz version 15.0.0 (20260523.1842)
 -->
<!-- Title: G Pages: 1 -->
<svg width="752pt" height="172pt"
 viewBox="3.00 3.00 749.00 169.00" xmlns="http://www.w3.org/2000/svg" xmlns:xlink="http://www.w3.org/1999/xlink">
<g id="graph0" class="graph" transform="scale(1 1) rotate(0) translate(6.88 164.88)">
<title>G</title>
<polygon fill="white" stroke="none" points="-4,4 -4,-162 742.5,-162 742.5,4 -4,4"/>
<!-- part -->
<g id="node1" class="node">
<title>part</title>
<polygon fill="#111827" stroke="none" points="0,-111 0,-158 82,-158 82,-111 0,-111"/>
<polygon fill="none" stroke="#cbd5e1" points="0,-111 0,-158 82,-158 82,-111 0,-111"/>
<text xml:space="preserve" text-anchor="start" x="13.62" y="-129.7" font-family="Helvetica,sans-Serif" font-weight="bold" font-size="14.00" fill="white">Provider</text>
<polygon fill="#166534" stroke="none" points="82,-111 82,-158 259.25,-158 259.25,-111 82,-111"/>
<polygon fill="none" stroke="#cbd5e1" points="82,-111 82,-158 259.25,-158 259.25,-111 82,-111"/>
<text xml:space="preserve" text-anchor="start" x="146.25" y="-134.7" font-family="Helvetica,sans-Serif" font-weight="bold" font-size="14.00" fill="white">SMART</text>
<text xml:space="preserve" text-anchor="start" x="93" y="-123.55" font-family="Helvetica,sans-Serif" font-size="11.00" fill="white">support visible + fetched support</text>
<polygon fill="#a16207" stroke="none" points="259.25,-111 259.25,-158 429,-158 429,-111 259.25,-111"/>
<polygon fill="none" stroke="#cbd5e1" points="259.25,-111 259.25,-158 429,-158 429,-111 259.25,-111"/>
<text xml:space="preserve" text-anchor="start" x="317.88" y="-134.7" font-family="Helvetica,sans-Serif" font-weight="bold" font-size="14.00" fill="white">MISSED</text>
<text xml:space="preserve" text-anchor="start" x="270.25" y="-123.55" font-family="Helvetica,sans-Serif" font-size="11.00" fill="white">support visible + did not fetch it</text>
<polygon fill="#c2410c" stroke="none" points="429,-111 429,-158 582.25,-158 582.25,-111 429,-111"/>
<polygon fill="none" stroke="#cbd5e1" points="429,-111 429,-158 582.25,-158 582.25,-111 429,-111"/>
<text xml:space="preserve" text-anchor="start" x="485" y="-134.7" font-family="Helvetica,sans-Serif" font-weight="bold" font-size="14.00" fill="white">BLIND</text>
<text xml:space="preserve" text-anchor="start" x="440" y="-123.55" font-family="Helvetica,sans-Serif" font-size="11.00" fill="white">no visible support + fetched</text>
<polygon fill="#374151" stroke="none" points="582.25,-111 582.25,-158 738.5,-158 738.5,-111 582.25,-111"/>
<polygon fill="none" stroke="#cbd5e1" points="582.25,-111 582.25,-158 738.5,-158 738.5,-111 582.25,-111"/>
<text xml:space="preserve" text-anchor="start" x="637.5" y="-134.7" font-family="Helvetica,sans-Serif" font-weight="bold" font-size="14.00" fill="white">NO&#45;OP</text>
<text xml:space="preserve" text-anchor="start" x="593.25" y="-123.55" font-family="Helvetica,sans-Serif" font-size="11.00" fill="white">no visible support + no fetch</text>
<polygon fill="none" stroke="#cbd5e1" points="0,-74 0,-111 82,-111 82,-74 0,-74"/>
<text xml:space="preserve" text-anchor="start" x="22.25" y="-87.7" font-family="Helvetica,sans-Serif" font-weight="bold" font-size="14.00">Brave</text>
<polygon fill="#dcfce7" stroke="none" points="82,-74 82,-111 259.25,-111 259.25,-74 82,-74"/>
<polygon fill="none" stroke="#cbd5e1" points="82,-74 82,-111 259.25,-111 259.25,-74 82,-74"/>
<text xml:space="preserve" text-anchor="start" x="137.25" y="-88.75" font-family="Helvetica,sans-Serif" font-size="14.00">8 / 4 (50%)</text>
<polygon fill="#fef3c7" stroke="none" points="259.25,-74 259.25,-111 429,-111 429,-74 259.25,-74"/>
<polygon fill="none" stroke="#cbd5e1" points="259.25,-74 259.25,-111 429,-111 429,-74 259.25,-74"/>
<text xml:space="preserve" text-anchor="start" x="303.25" y="-88.75" font-family="Helvetica,sans-Serif" font-size="14.00">25 / 11 (44%)</text>
<polygon fill="#ffedd5" stroke="none" points="429,-74 429,-111 582.25,-111 582.25,-74 429,-74"/>
<polygon fill="none" stroke="#cbd5e1" points="429,-74 429,-111 582.25,-111 582.25,-74 429,-74"/>
<text xml:space="preserve" text-anchor="start" x="464.75" y="-88.75" font-family="Helvetica,sans-Serif" font-size="14.00">51 / 10 (20%)</text>
<polygon fill="#e5e7eb" stroke="none" points="582.25,-74 582.25,-111 738.5,-111 738.5,-74 582.25,-74"/>
<polygon fill="none" stroke="#cbd5e1" points="582.25,-74 582.25,-111 738.5,-111 738.5,-74 582.25,-74"/>
<text xml:space="preserve" text-anchor="start" x="636.38" y="-88.75" font-family="Helvetica,sans-Serif" font-size="14.00">0 / 0 (&#45;&#45;)</text>
<polygon fill="none" stroke="#cbd5e1" points="0,-37 0,-74 82,-74 82,-37 0,-37"/>
<text xml:space="preserve" text-anchor="start" x="21.88" y="-50.7" font-family="Helvetica,sans-Serif" font-weight="bold" font-size="14.00">Tavily</text>
<polygon fill="#dcfce7" stroke="none" points="82,-37 82,-74 259.25,-74 259.25,-37 82,-37"/>
<polygon fill="none" stroke="#cbd5e1" points="82,-37 82,-74 259.25,-74 259.25,-37 82,-37"/>
<text xml:space="preserve" text-anchor="start" x="133.5" y="-51.75" font-family="Helvetica,sans-Serif" font-size="14.00">11 / 7 (64%)</text>
<polygon fill="#fef3c7" stroke="none" points="259.25,-37 259.25,-74 429,-74 429,-37 259.25,-37"/>
<polygon fill="none" stroke="#cbd5e1" points="259.25,-37 259.25,-74 429,-74 429,-37 259.25,-37"/>
<text xml:space="preserve" text-anchor="start" x="307" y="-51.75" font-family="Helvetica,sans-Serif" font-size="14.00">13 / 7 (54%)</text>
<polygon fill="#ffedd5" stroke="none" points="429,-37 429,-74 582.25,-74 582.25,-37 429,-37"/>
<polygon fill="none" stroke="#cbd5e1" points="429,-37 429,-74 582.25,-74 582.25,-37 429,-37"/>
<text xml:space="preserve" text-anchor="start" x="464.75" y="-51.75" font-family="Helvetica,sans-Serif" font-size="14.00">55 / 10 (18%)</text>
<polygon fill="#e5e7eb" stroke="none" points="582.25,-37 582.25,-74 738.5,-74 738.5,-37 582.25,-37"/>
<polygon fill="none" stroke="#cbd5e1" points="582.25,-37 582.25,-74 738.5,-74 738.5,-37 582.25,-37"/>
<text xml:space="preserve" text-anchor="start" x="636.38" y="-51.75" font-family="Helvetica,sans-Serif" font-size="14.00">0 / 0 (&#45;&#45;)</text>
<polygon fill="none" stroke="#cbd5e1" points="0,0 0,-37 82,-37 82,0 0,0"/>
<text xml:space="preserve" text-anchor="start" x="11" y="-13.7" font-family="Helvetica,sans-Serif" font-weight="bold" font-size="14.00">Firecrawl</text>
<polygon fill="#dcfce7" stroke="none" points="82,0 82,-37 259.25,-37 259.25,0 82,0"/>
<polygon fill="none" stroke="#cbd5e1" points="82,0 82,-37 259.25,-37 259.25,0 82,0"/>
<text xml:space="preserve" text-anchor="start" x="137.25" y="-14.75" font-family="Helvetica,sans-Serif" font-size="14.00">7 / 2 (29%)</text>
<polygon fill="#fef3c7" stroke="none" points="259.25,0 259.25,-37 429,-37 429,0 259.25,0"/>
<polygon fill="none" stroke="#cbd5e1" points="259.25,0 259.25,-37 429,-37 429,0 259.25,0"/>
<text xml:space="preserve" text-anchor="start" x="307" y="-14.75" font-family="Helvetica,sans-Serif" font-size="14.00">12 / 6 (50%)</text>
<polygon fill="#ffedd5" stroke="none" points="429,0 429,-37 582.25,-37 582.25,0 429,0"/>
<polygon fill="none" stroke="#cbd5e1" points="429,0 429,-37 582.25,-37 582.25,0 429,0"/>
<text xml:space="preserve" text-anchor="start" x="464.75" y="-14.75" font-family="Helvetica,sans-Serif" font-size="14.00">67 / 18 (27%)</text>
<polygon fill="#e5e7eb" stroke="none" points="582.25,0 582.25,-37 738.5,-37 738.5,0 582.25,0"/>
<polygon fill="none" stroke="#cbd5e1" points="582.25,0 582.25,-37 738.5,-37 738.5,0 582.25,0"/>
<text xml:space="preserve" text-anchor="start" x="636.38" y="-14.75" font-family="Helvetica,sans-Serif" font-size="14.00">0 / 0 (&#45;&#45;)</text>
</g>
</g>
</svg>
