<?xml version="1.0" encoding="UTF-8" standalone="no"?>
<!DOCTYPE svg PUBLIC "-//W3C//DTD SVG 1.1//EN"
 "http://www.w3.org/Graphics/SVG/1.1/DTD/svg11.dtd">
<!-- Generated by graphviz version 15.0.0 (20260523.1842)
 -->
<!-- Title: G Pages: 1 -->
<svg width="776pt" height="172pt"
 viewBox="3.00 3.00 773.00 169.00" xmlns="http://www.w3.org/2000/svg" xmlns:xlink="http://www.w3.org/1999/xlink">
<g id="graph0" class="graph" transform="scale(1 1) rotate(0) translate(6.88 164.88)">
<title>G</title>
<polygon fill="white" stroke="none" points="-4,4 -4,-162 765.75,-162 765.75,4 -4,4"/>
<!-- part -->
<g id="node1" class="node">
<title>part</title>
<polygon fill="#111827" stroke="none" points="0,-111 0,-158 82,-158 82,-111 0,-111"/>
<polygon fill="none" stroke="#cbd5e1" points="0,-111 0,-158 82,-158 82,-111 0,-111"/>
<text xml:space="preserve" text-anchor="start" x="13.62" y="-129.7" font-family="Helvetica,sans-Serif" font-weight="bold" font-size="14.00" fill="white">Provider</text>
<polygon fill="#166534" stroke="none" points="82,-111 82,-158 242,-158 242,-111 82,-111"/>
<polygon fill="none" stroke="#cbd5e1" points="82,-111 82,-158 242,-158 242,-111 82,-111"/>
<text xml:space="preserve" text-anchor="start" x="137.62" y="-134.7" font-family="Helvetica,sans-Serif" font-weight="bold" font-size="14.00" fill="white">SMART</text>
<text xml:space="preserve" text-anchor="start" x="93" y="-123.55" font-family="Helvetica,sans-Serif" font-size="11.00" fill="white">pre&#45;fetch support + fetched it</text>
<polygon fill="#a16207" stroke="none" points="242,-111 242,-158 425.25,-158 425.25,-111 242,-111"/>
<polygon fill="none" stroke="#cbd5e1" points="242,-111 242,-158 425.25,-158 425.25,-111 242,-111"/>
<text xml:space="preserve" text-anchor="start" x="307.38" y="-134.7" font-family="Helvetica,sans-Serif" font-weight="bold" font-size="14.00" fill="white">MISSED</text>
<text xml:space="preserve" text-anchor="start" x="253" y="-123.55" font-family="Helvetica,sans-Serif" font-size="11.00" fill="white">pre&#45;fetch support + did not fetch it</text>
<polygon fill="#c2410c" stroke="none" points="425.25,-111 425.25,-158 592,-158 592,-111 425.25,-111"/>
<polygon fill="none" stroke="#cbd5e1" points="425.25,-111 425.25,-158 592,-158 592,-111 425.25,-111"/>
<text xml:space="preserve" text-anchor="start" x="488" y="-134.7" font-family="Helvetica,sans-Serif" font-weight="bold" font-size="14.00" fill="white">BLIND</text>
<text xml:space="preserve" text-anchor="start" x="436.25" y="-123.55" font-family="Helvetica,sans-Serif" font-size="11.00" fill="white">no pre&#45;fetch support + fetched</text>
<polygon fill="#374151" stroke="none" points="592,-111 592,-158 761.75,-158 761.75,-111 592,-111"/>
<polygon fill="none" stroke="#cbd5e1" points="592,-111 592,-158 761.75,-158 761.75,-111 592,-111"/>
<text xml:space="preserve" text-anchor="start" x="654" y="-134.7" font-family="Helvetica,sans-Serif" font-weight="bold" font-size="14.00" fill="white">NO&#45;OP</text>
<text xml:space="preserve" text-anchor="start" x="603" y="-123.55" font-family="Helvetica,sans-Serif" font-size="11.00" fill="white">no pre&#45;fetch support + no fetch</text>
<polygon fill="none" stroke="#cbd5e1" points="0,-74 0,-111 82,-111 82,-74 0,-74"/>
<text xml:space="preserve" text-anchor="start" x="22.25" y="-87.7" font-family="Helvetica,sans-Serif" font-weight="bold" font-size="14.00">Brave</text>
<polygon fill="#dcfce7" stroke="none" points="82,-74 82,-111 242,-111 242,-74 82,-74"/>
<polygon fill="none" stroke="#cbd5e1" points="82,-74 82,-111 242,-111 242,-74 82,-74"/>
<text xml:space="preserve" text-anchor="start" x="124.88" y="-88.75" font-family="Helvetica,sans-Serif" font-size="14.00">3 / 3 (100%)</text>
<polygon fill="#fef3c7" stroke="none" points="242,-74 242,-111 425.25,-111 425.25,-74 242,-74"/>
<polygon fill="none" stroke="#cbd5e1" points="242,-74 242,-111 425.25,-111 425.25,-74 242,-74"/>
<text xml:space="preserve" text-anchor="start" x="292.75" y="-88.75" font-family="Helvetica,sans-Serif" font-size="14.00">27 / 11 (41%)</text>
<polygon fill="#ffedd5" stroke="none" points="425.25,-74 425.25,-111 592,-111 592,-74 425.25,-74"/>
<polygon fill="none" stroke="#cbd5e1" points="425.25,-74 425.25,-111 592,-111 592,-74 425.25,-74"/>
<text xml:space="preserve" text-anchor="start" x="467.75" y="-88.75" font-family="Helvetica,sans-Serif" font-size="14.00">54 / 11 (20%)</text>
<polygon fill="#e5e7eb" stroke="none" points="592,-74 592,-111 761.75,-111 761.75,-74 592,-74"/>
<polygon fill="none" stroke="#cbd5e1" points="592,-74 592,-111 761.75,-111 761.75,-74 592,-74"/>
<text xml:space="preserve" text-anchor="start" x="643.5" y="-88.75" font-family="Helvetica,sans-Serif" font-size="14.00">16 / 0 (0%)</text>
<polygon fill="none" stroke="#cbd5e1" points="0,-37 0,-74 82,-74 82,-37 0,-37"/>
<text xml:space="preserve" text-anchor="start" x="21.88" y="-50.7" font-family="Helvetica,sans-Serif" font-weight="bold" font-size="14.00">Tavily</text>
<polygon fill="#dcfce7" stroke="none" points="82,-37 82,-74 242,-74 242,-37 82,-37"/>
<polygon fill="none" stroke="#cbd5e1" points="82,-37 82,-74 242,-74 242,-37 82,-37"/>
<text xml:space="preserve" text-anchor="start" x="128.62" y="-51.75" font-family="Helvetica,sans-Serif" font-size="14.00">3 / 1 (33%)</text>
<polygon fill="#fef3c7" stroke="none" points="242,-37 242,-74 425.25,-74 425.25,-37 242,-37"/>
<polygon fill="none" stroke="#cbd5e1" points="242,-37 242,-74 425.25,-74 425.25,-37 242,-37"/>
<text xml:space="preserve" text-anchor="start" x="296.5" y="-51.75" font-family="Helvetica,sans-Serif" font-size="14.00">13 / 7 (54%)</text>
<polygon fill="#ffedd5" stroke="none" points="425.25,-37 425.25,-74 592,-74 592,-37 425.25,-37"/>
<polygon fill="none" stroke="#cbd5e1" points="425.25,-37 425.25,-74 592,-74 592,-37 425.25,-37"/>
<text xml:space="preserve" text-anchor="start" x="467.75" y="-51.75" font-family="Helvetica,sans-Serif" font-size="14.00">63 / 16 (25%)</text>
<polygon fill="#e5e7eb" stroke="none" points="592,-37 592,-74 761.75,-74 761.75,-37 592,-37"/>
<polygon fill="none" stroke="#cbd5e1" points="592,-37 592,-74 761.75,-74 761.75,-37 592,-37"/>
<text xml:space="preserve" text-anchor="start" x="643.5" y="-51.75" font-family="Helvetica,sans-Serif" font-size="14.00">21 / 1 (5%)</text>
<polygon fill="none" stroke="#cbd5e1" points="0,0 0,-37 82,-37 82,0 0,0"/>
<text xml:space="preserve" text-anchor="start" x="11" y="-13.7" font-family="Helvetica,sans-Serif" font-weight="bold" font-size="14.00">Firecrawl</text>
<polygon fill="#dcfce7" stroke="none" points="82,0 82,-37 242,-37 242,0 82,0"/>
<polygon fill="none" stroke="#cbd5e1" points="82,0 82,-37 242,-37 242,0 82,0"/>
<text xml:space="preserve" text-anchor="start" x="128.62" y="-14.75" font-family="Helvetica,sans-Serif" font-size="14.00">3 / 1 (33%)</text>
<polygon fill="#fef3c7" stroke="none" points="242,0 242,-37 425.25,-37 425.25,0 242,0"/>
<polygon fill="none" stroke="#cbd5e1" points="242,0 242,-37 425.25,-37 425.25,0 242,0"/>
<text xml:space="preserve" text-anchor="start" x="296.5" y="-14.75" font-family="Helvetica,sans-Serif" font-size="14.00">13 / 7 (54%)</text>
<polygon fill="#ffedd5" stroke="none" points="425.25,0 425.25,-37 592,-37 592,0 425.25,0"/>
<polygon fill="none" stroke="#cbd5e1" points="425.25,0 425.25,-37 592,-37 592,0 425.25,0"/>
<text xml:space="preserve" text-anchor="start" x="467.75" y="-14.75" font-family="Helvetica,sans-Serif" font-size="14.00">70 / 18 (26%)</text>
<polygon fill="#e5e7eb" stroke="none" points="592,0 592,-37 761.75,-37 761.75,0 592,0"/>
<polygon fill="none" stroke="#cbd5e1" points="592,0 592,-37 761.75,-37 761.75,0 592,0"/>
<text xml:space="preserve" text-anchor="start" x="643.5" y="-14.75" font-family="Helvetica,sans-Serif" font-size="14.00">14 / 0 (0%)</text>
</g>
</g>
</svg>
