<?xml version="1.0" encoding="UTF-8" standalone="no"?>
<!DOCTYPE svg PUBLIC "-//W3C//DTD SVG 1.1//EN"
 "http://www.w3.org/Graphics/SVG/1.1/DTD/svg11.dtd">
<!-- Generated by graphviz version 15.0.0 (20260523.1842)
 -->
<!-- Title: G Pages: 1 -->
<svg width="814pt" height="372pt"
 viewBox="3.00 3.00 811.00 369.00" xmlns="http://www.w3.org/2000/svg" xmlns:xlink="http://www.w3.org/1999/xlink">
<g id="graph0" class="graph" transform="scale(1 1) rotate(0) translate(6.88 365.38)">
<title>G</title>
<polygon fill="white" stroke="none" points="-4,4 -4,-362.5 804,-362.5 804,4 -4,4"/>
<!-- upset -->
<g id="node1" class="node">
<title>upset</title>
<polygon fill="#f8fafc" stroke="none" points="0,-313.5 0,-358.5 800,-358.5 800,-313.5 0,-313.5"/>
<polygon fill="none" stroke="#cbd5e1" points="0,-313.5 0,-358.5 800,-358.5 800,-313.5 0,-313.5"/>
<text xml:space="preserve" text-anchor="start" x="197.88" y="-334.5" font-family="Helvetica,sans-Serif" font-weight="bold" font-size="20.00">Semantic&#45;correct overlap across providers</text>
<text xml:space="preserve" text-anchor="start" x="192.25" y="-321.15" font-family="Helvetica,sans-Serif" font-size="13.00">Any provider: </text>
<text xml:space="preserve" text-anchor="start" x="275.5" y="-321.15" font-family="Helvetica,sans-Serif" font-weight="bold" font-size="13.00">44</text>
<text xml:space="preserve" text-anchor="start" x="290.5" y="-321.15" font-family="Helvetica,sans-Serif" font-size="13.00"> / 100    Best single: </text>
<text xml:space="preserve" text-anchor="start" x="412.75" y="-321.15" font-family="Helvetica,sans-Serif" font-weight="bold" font-size="13.00">26</text>
<text xml:space="preserve" text-anchor="start" x="427.75" y="-321.15" font-family="Helvetica,sans-Serif" font-size="13.00"> / 100    Oracle routing lift: </text>
<text xml:space="preserve" text-anchor="start" x="585.25" y="-321.15" font-family="Helvetica,sans-Serif" font-weight="bold" font-size="13.00">+18</text>
<polygon fill="#111827" stroke="none" points="0,-286.5 0,-313.5 310,-313.5 310,-286.5 0,-286.5"/>
<polygon fill="none" stroke="#cbd5e1" points="0,-286.5 0,-313.5 310,-313.5 310,-286.5 0,-286.5"/>
<text xml:space="preserve" text-anchor="start" x="132.12" y="-295.2" font-family="Helvetica,sans-Serif" font-weight="bold" font-size="14.00" fill="white">Region</text>
<polygon fill="#111827" stroke="none" points="310,-286.5 310,-313.5 435,-313.5 435,-286.5 310,-286.5"/>
<polygon fill="none" stroke="#cbd5e1" points="310,-286.5 310,-313.5 435,-313.5 435,-286.5 310,-286.5"/>
<text xml:space="preserve" text-anchor="start" x="353.75" y="-295.2" font-family="Helvetica,sans-Serif" font-weight="bold" font-size="14.00" fill="white">Brave</text>
<polygon fill="#111827" stroke="none" points="435,-286.5 435,-313.5 560,-313.5 560,-286.5 435,-286.5"/>
<polygon fill="none" stroke="#cbd5e1" points="435,-286.5 435,-313.5 560,-313.5 560,-286.5 435,-286.5"/>
<text xml:space="preserve" text-anchor="start" x="478.38" y="-295.2" font-family="Helvetica,sans-Serif" font-weight="bold" font-size="14.00" fill="white">Tavily</text>
<polygon fill="#111827" stroke="none" points="560,-286.5 560,-313.5 685,-313.5 685,-286.5 560,-286.5"/>
<polygon fill="none" stroke="#cbd5e1" points="560,-286.5 560,-313.5 685,-313.5 685,-286.5 560,-286.5"/>
<text xml:space="preserve" text-anchor="start" x="592.5" y="-295.2" font-family="Helvetica,sans-Serif" font-weight="bold" font-size="14.00" fill="white">Firecrawl</text>
<polygon fill="#111827" stroke="none" points="685,-286.5 685,-313.5 800,-313.5 800,-286.5 685,-286.5"/>
<polygon fill="none" stroke="#cbd5e1" points="685,-286.5 685,-313.5 800,-313.5 800,-286.5 685,-286.5"/>
<text xml:space="preserve" text-anchor="start" x="717" y="-295.2" font-family="Helvetica,sans-Serif" font-weight="bold" font-size="14.00" fill="white">Queries</text>
<polygon fill="#dcfce7" stroke="none" points="0,-252 0,-286.5 310,-286.5 310,-252 0,-252"/>
<polygon fill="none" stroke="#cbd5e1" points="0,-252 0,-286.5 310,-286.5 310,-252 0,-252"/>
<text xml:space="preserve" text-anchor="start" x="6" y="-265.5" font-family="Helvetica,sans-Serif" font-size="14.00">All three providers</text>
<polygon fill="#dcfce7" stroke="none" points="310,-252 310,-286.5 435,-286.5 435,-252 310,-252"/>
<polygon fill="none" stroke="#cbd5e1" points="310,-252 310,-286.5 435,-286.5 435,-252 310,-252"/>
<text xml:space="preserve" text-anchor="start" x="366.5" y="-264" font-family="Helvetica,sans-Serif" font-size="20.00" fill="#111827">●</text>
<polygon fill="#dcfce7" stroke="none" points="435,-252 435,-286.5 560,-286.5 560,-252 435,-252"/>
<polygon fill="none" stroke="#cbd5e1" points="435,-252 435,-286.5 560,-286.5 560,-252 435,-252"/>
<text xml:space="preserve" text-anchor="start" x="491.5" y="-264" font-family="Helvetica,sans-Serif" font-size="20.00" fill="#111827">●</text>
<polygon fill="#dcfce7" stroke="none" points="560,-252 560,-286.5 685,-286.5 685,-252 560,-252"/>
<polygon fill="none" stroke="#cbd5e1" points="560,-252 560,-286.5 685,-286.5 685,-252 560,-252"/>
<text xml:space="preserve" text-anchor="start" x="616.5" y="-264" font-family="Helvetica,sans-Serif" font-size="20.00" fill="#111827">●</text>
<polygon fill="#dcfce7" stroke="none" points="685,-252 685,-286.5 800,-286.5 800,-252 685,-252"/>
<polygon fill="none" stroke="#cbd5e1" points="685,-252 685,-286.5 800,-286.5 800,-252 685,-252"/>
<text xml:space="preserve" text-anchor="start" x="730.5" y="-260.6" font-family="Helvetica,sans-Serif" font-weight="bold" font-size="22.00">10</text>
<polygon fill="#eff6ff" stroke="none" points="0,-216 0,-252 310,-252 310,-216 0,-216"/>
<polygon fill="none" stroke="#cbd5e1" points="0,-216 0,-252 310,-252 310,-216 0,-216"/>
<text xml:space="preserve" text-anchor="start" x="6" y="-230.25" font-family="Helvetica,sans-Serif" font-size="14.00">Brave + Tavily only</text>
<polygon fill="#eff6ff" stroke="none" points="310,-216 310,-252 435,-252 435,-216 310,-216"/>
<polygon fill="none" stroke="#cbd5e1" points="310,-216 310,-252 435,-252 435,-216 310,-216"/>
<text xml:space="preserve" text-anchor="start" x="366.5" y="-228.75" font-family="Helvetica,sans-Serif" font-size="20.00" fill="#111827">●</text>
<polygon fill="#eff6ff" stroke="none" points="435,-216 435,-252 560,-252 560,-216 435,-216"/>
<polygon fill="none" stroke="#cbd5e1" points="435,-216 435,-252 560,-252 560,-216 435,-216"/>
<text xml:space="preserve" text-anchor="start" x="491.5" y="-228.75" font-family="Helvetica,sans-Serif" font-size="20.00" fill="#111827">●</text>
<polygon fill="#eff6ff" stroke="none" points="560,-216 560,-252 685,-252 685,-216 560,-216"/>
<polygon fill="none" stroke="#cbd5e1" points="560,-216 560,-252 685,-252 685,-216 560,-216"/>
<text xml:space="preserve" text-anchor="start" x="616.88" y="-226.5" font-family="Helvetica,sans-Serif" font-size="20.00" fill="#cbd5e1">○</text>
<polygon fill="#eff6ff" stroke="none" points="685,-216 685,-252 800,-252 800,-216 685,-216"/>
<polygon fill="none" stroke="#cbd5e1" points="685,-216 685,-252 800,-252 800,-216 685,-216"/>
<text xml:space="preserve" text-anchor="start" x="736.5" y="-225.35" font-family="Helvetica,sans-Serif" font-weight="bold" font-size="22.00">4</text>
<polygon fill="#eff6ff" stroke="none" points="0,-180 0,-216 310,-216 310,-180 0,-180"/>
<polygon fill="none" stroke="#cbd5e1" points="0,-180 0,-216 310,-216 310,-180 0,-180"/>
<text xml:space="preserve" text-anchor="start" x="6" y="-194.25" font-family="Helvetica,sans-Serif" font-size="14.00">Brave + Firecrawl only</text>
<polygon fill="#eff6ff" stroke="none" points="310,-180 310,-216 435,-216 435,-180 310,-180"/>
<polygon fill="none" stroke="#cbd5e1" points="310,-180 310,-216 435,-216 435,-180 310,-180"/>
<text xml:space="preserve" text-anchor="start" x="366.5" y="-192.75" font-family="Helvetica,sans-Serif" font-size="20.00" fill="#111827">●</text>
<polygon fill="#eff6ff" stroke="none" points="435,-180 435,-216 560,-216 560,-180 435,-180"/>
<polygon fill="none" stroke="#cbd5e1" points="435,-180 435,-216 560,-216 560,-180 435,-180"/>
<text xml:space="preserve" text-anchor="start" x="491.88" y="-190.5" font-family="Helvetica,sans-Serif" font-size="20.00" fill="#cbd5e1">○</text>
<polygon fill="#eff6ff" stroke="none" points="560,-180 560,-216 685,-216 685,-180 560,-180"/>
<polygon fill="none" stroke="#cbd5e1" points="560,-180 560,-216 685,-216 685,-180 560,-180"/>
<text xml:space="preserve" text-anchor="start" x="616.5" y="-192.75" font-family="Helvetica,sans-Serif" font-size="20.00" fill="#111827">●</text>
<polygon fill="#eff6ff" stroke="none" points="685,-180 685,-216 800,-216 800,-180 685,-180"/>
<polygon fill="none" stroke="#cbd5e1" points="685,-180 685,-216 800,-216 800,-180 685,-180"/>
<text xml:space="preserve" text-anchor="start" x="736.5" y="-189.35" font-family="Helvetica,sans-Serif" font-weight="bold" font-size="22.00">4</text>
<polygon fill="#eff6ff" stroke="none" points="0,-144 0,-180 310,-180 310,-144 0,-144"/>
<polygon fill="none" stroke="#cbd5e1" points="0,-144 0,-180 310,-180 310,-144 0,-144"/>
<text xml:space="preserve" text-anchor="start" x="6" y="-158.25" font-family="Helvetica,sans-Serif" font-size="14.00">Tavily + Firecrawl only</text>
<polygon fill="#eff6ff" stroke="none" points="310,-144 310,-180 435,-180 435,-144 310,-144"/>
<polygon fill="none" stroke="#cbd5e1" points="310,-144 310,-180 435,-180 435,-144 310,-144"/>
<text xml:space="preserve" text-anchor="start" x="366.88" y="-154.5" font-family="Helvetica,sans-Serif" font-size="20.00" fill="#cbd5e1">○</text>
<polygon fill="#eff6ff" stroke="none" points="435,-144 435,-180 560,-180 560,-144 435,-144"/>
<polygon fill="none" stroke="#cbd5e1" points="435,-144 435,-180 560,-180 560,-144 435,-144"/>
<text xml:space="preserve" text-anchor="start" x="491.5" y="-156.75" font-family="Helvetica,sans-Serif" font-size="20.00" fill="#111827">●</text>
<polygon fill="#eff6ff" stroke="none" points="560,-144 560,-180 685,-180 685,-144 560,-144"/>
<polygon fill="none" stroke="#cbd5e1" points="560,-144 560,-180 685,-180 685,-144 560,-144"/>
<text xml:space="preserve" text-anchor="start" x="616.5" y="-156.75" font-family="Helvetica,sans-Serif" font-size="20.00" fill="#111827">●</text>
<polygon fill="#eff6ff" stroke="none" points="685,-144 685,-180 800,-180 800,-144 685,-144"/>
<polygon fill="none" stroke="#cbd5e1" points="685,-144 685,-180 800,-180 800,-144 685,-144"/>
<text xml:space="preserve" text-anchor="start" x="736.5" y="-153.35" font-family="Helvetica,sans-Serif" font-weight="bold" font-size="22.00">4</text>
<polygon fill="#fef3c7" stroke="none" points="0,-108 0,-144 310,-144 310,-108 0,-108"/>
<polygon fill="none" stroke="#cbd5e1" points="0,-108 0,-144 310,-144 310,-108 0,-108"/>
<text xml:space="preserve" text-anchor="start" x="6" y="-122.25" font-family="Helvetica,sans-Serif" font-size="14.00">Brave only</text>
<polygon fill="#fef3c7" stroke="none" points="310,-108 310,-144 435,-144 435,-108 310,-108"/>
<polygon fill="none" stroke="#cbd5e1" points="310,-108 310,-144 435,-144 435,-108 310,-108"/>
<text xml:space="preserve" text-anchor="start" x="366.5" y="-120.75" font-family="Helvetica,sans-Serif" font-size="20.00" fill="#111827">●</text>
<polygon fill="#fef3c7" stroke="none" points="435,-108 435,-144 560,-144 560,-108 435,-108"/>
<polygon fill="none" stroke="#cbd5e1" points="435,-108 435,-144 560,-144 560,-108 435,-108"/>
<text xml:space="preserve" text-anchor="start" x="491.88" y="-118.5" font-family="Helvetica,sans-Serif" font-size="20.00" fill="#cbd5e1">○</text>
<polygon fill="#fef3c7" stroke="none" points="560,-108 560,-144 685,-144 685,-108 560,-108"/>
<polygon fill="none" stroke="#cbd5e1" points="560,-108 560,-144 685,-144 685,-108 560,-108"/>
<text xml:space="preserve" text-anchor="start" x="616.88" y="-118.5" font-family="Helvetica,sans-Serif" font-size="20.00" fill="#cbd5e1">○</text>
<polygon fill="#fef3c7" stroke="none" points="685,-108 685,-144 800,-144 800,-108 685,-108"/>
<polygon fill="none" stroke="#cbd5e1" points="685,-108 685,-144 800,-144 800,-108 685,-108"/>
<text xml:space="preserve" text-anchor="start" x="736.5" y="-117.35" font-family="Helvetica,sans-Serif" font-weight="bold" font-size="22.00">7</text>
<polygon fill="#fef3c7" stroke="none" points="0,-72 0,-108 310,-108 310,-72 0,-72"/>
<polygon fill="none" stroke="#cbd5e1" points="0,-72 0,-108 310,-108 310,-72 0,-72"/>
<text xml:space="preserve" text-anchor="start" x="6" y="-86.25" font-family="Helvetica,sans-Serif" font-size="14.00">Tavily only</text>
<polygon fill="#fef3c7" stroke="none" points="310,-72 310,-108 435,-108 435,-72 310,-72"/>
<polygon fill="none" stroke="#cbd5e1" points="310,-72 310,-108 435,-108 435,-72 310,-72"/>
<text xml:space="preserve" text-anchor="start" x="366.88" y="-82.5" font-family="Helvetica,sans-Serif" font-size="20.00" fill="#cbd5e1">○</text>
<polygon fill="#fef3c7" stroke="none" points="435,-72 435,-108 560,-108 560,-72 435,-72"/>
<polygon fill="none" stroke="#cbd5e1" points="435,-72 435,-108 560,-108 560,-72 435,-72"/>
<text xml:space="preserve" text-anchor="start" x="491.5" y="-84.75" font-family="Helvetica,sans-Serif" font-size="20.00" fill="#111827">●</text>
<polygon fill="#fef3c7" stroke="none" points="560,-72 560,-108 685,-108 685,-72 560,-72"/>
<polygon fill="none" stroke="#cbd5e1" points="560,-72 560,-108 685,-108 685,-72 560,-72"/>
<text xml:space="preserve" text-anchor="start" x="616.88" y="-82.5" font-family="Helvetica,sans-Serif" font-size="20.00" fill="#cbd5e1">○</text>
<polygon fill="#fef3c7" stroke="none" points="685,-72 685,-108 800,-108 800,-72 685,-72"/>
<polygon fill="none" stroke="#cbd5e1" points="685,-72 685,-108 800,-108 800,-72 685,-72"/>
<text xml:space="preserve" text-anchor="start" x="736.5" y="-81.35" font-family="Helvetica,sans-Serif" font-weight="bold" font-size="22.00">7</text>
<polygon fill="#fef3c7" stroke="none" points="0,-36 0,-72 310,-72 310,-36 0,-36"/>
<polygon fill="none" stroke="#cbd5e1" points="0,-36 0,-72 310,-72 310,-36 0,-36"/>
<text xml:space="preserve" text-anchor="start" x="6" y="-50.25" font-family="Helvetica,sans-Serif" font-size="14.00">Firecrawl only</text>
<polygon fill="#fef3c7" stroke="none" points="310,-36 310,-72 435,-72 435,-36 310,-36"/>
<polygon fill="none" stroke="#cbd5e1" points="310,-36 310,-72 435,-72 435,-36 310,-36"/>
<text xml:space="preserve" text-anchor="start" x="366.88" y="-46.5" font-family="Helvetica,sans-Serif" font-size="20.00" fill="#cbd5e1">○</text>
<polygon fill="#fef3c7" stroke="none" points="435,-36 435,-72 560,-72 560,-36 435,-36"/>
<polygon fill="none" stroke="#cbd5e1" points="435,-36 435,-72 560,-72 560,-36 435,-36"/>
<text xml:space="preserve" text-anchor="start" x="491.88" y="-46.5" font-family="Helvetica,sans-Serif" font-size="20.00" fill="#cbd5e1">○</text>
<polygon fill="#fef3c7" stroke="none" points="560,-36 560,-72 685,-72 685,-36 560,-36"/>
<polygon fill="none" stroke="#cbd5e1" points="560,-36 560,-72 685,-72 685,-36 560,-36"/>
<text xml:space="preserve" text-anchor="start" x="616.5" y="-48.75" font-family="Helvetica,sans-Serif" font-size="20.00" fill="#111827">●</text>
<polygon fill="#fef3c7" stroke="none" points="685,-36 685,-72 800,-72 800,-36 685,-36"/>
<polygon fill="none" stroke="#cbd5e1" points="685,-36 685,-72 800,-72 800,-36 685,-36"/>
<text xml:space="preserve" text-anchor="start" x="736.5" y="-45.35" font-family="Helvetica,sans-Serif" font-weight="bold" font-size="22.00">8</text>
<polygon fill="#fee2e2" stroke="none" points="0,0 0,-36 310,-36 310,0 0,0"/>
<polygon fill="none" stroke="#cbd5e1" points="0,0 0,-36 310,-36 310,0 0,0"/>
<text xml:space="preserve" text-anchor="start" x="6" y="-14.25" font-family="Helvetica,sans-Serif" font-size="14.00">None correct</text>
<polygon fill="#fee2e2" stroke="none" points="310,0 310,-36 435,-36 435,0 310,0"/>
<polygon fill="none" stroke="#cbd5e1" points="310,0 310,-36 435,-36 435,0 310,0"/>
<text xml:space="preserve" text-anchor="start" x="366.88" y="-10.5" font-family="Helvetica,sans-Serif" font-size="20.00" fill="#cbd5e1">○</text>
<polygon fill="#fee2e2" stroke="none" points="435,0 435,-36 560,-36 560,0 435,0"/>
<polygon fill="none" stroke="#cbd5e1" points="435,0 435,-36 560,-36 560,0 435,0"/>
<text xml:space="preserve" text-anchor="start" x="491.88" y="-10.5" font-family="Helvetica,sans-Serif" font-size="20.00" fill="#cbd5e1">○</text>
<polygon fill="#fee2e2" stroke="none" points="560,0 560,-36 685,-36 685,0 560,0"/>
<polygon fill="none" stroke="#cbd5e1" points="560,0 560,-36 685,-36 685,0 560,0"/>
<text xml:space="preserve" text-anchor="start" x="616.88" y="-10.5" font-family="Helvetica,sans-Serif" font-size="20.00" fill="#cbd5e1">○</text>
<polygon fill="#fee2e2" stroke="none" points="685,0 685,-36 800,-36 800,0 685,0"/>
<polygon fill="none" stroke="#cbd5e1" points="685,0 685,-36 800,-36 800,0 685,0"/>
<text xml:space="preserve" text-anchor="start" x="730.5" y="-9.35" font-family="Helvetica,sans-Serif" font-weight="bold" font-size="22.00">56</text>
</g>
</g>
</svg>
