<?xml version="1.0" encoding="UTF-8" standalone="no"?>
<!DOCTYPE svg PUBLIC "-//W3C//DTD SVG 1.1//EN"
 "http://www.w3.org/Graphics/SVG/1.1/DTD/svg11.dtd">
<!-- Generated by graphviz version 15.0.0 (20260523.1842)
 -->
<!-- Title: G Pages: 1 -->
<svg width="1076pt" height="239pt"
 viewBox="2.00 2.00 1073.00 236.00" xmlns="http://www.w3.org/2000/svg" xmlns:xlink="http://www.w3.org/1999/xlink">
<g id="graph0" class="graph" transform="scale(1 1) rotate(0) translate(6.16 232.41)">
<title>G</title>
<!-- agg -->
<g id="node1" class="node">
<title>agg</title>
<polygon fill="#f6f8fb" stroke="none" points="0,-176.12 0,-224.38 213.25,-224.38 213.25,-176.12 0,-176.12"/>
<polygon fill="none" stroke="#465766" points="0,-176.12 0,-224.38 213.25,-224.38 213.25,-176.12 0,-176.12"/>
<text xml:space="preserve" text-anchor="start" x="11" y="-189.68" font-family="Helvetica,sans-Serif" font-weight="bold" font-size="26.00">Aggregate view</text>
<polygon fill="none" stroke="#465766" points="0,-131.62 0,-176.12 213.25,-176.12 213.25,-131.62 0,-131.62"/>
<text xml:space="preserve" text-anchor="start" x="41.75" y="-147.88" font-family="Helvetica,sans-Serif" font-size="22.00">Brave 21/100</text>
<polygon fill="none" stroke="#465766" points="0,-87.12 0,-131.62 213.25,-131.62 213.25,-87.12 0,-87.12"/>
<text xml:space="preserve" text-anchor="start" x="42.5" y="-103.38" font-family="Helvetica,sans-Serif" font-size="22.00">Tavily 21/100</text>
<polygon fill="none" stroke="#465766" points="0,-42.62 0,-87.12 213.25,-87.12 213.25,-42.62 0,-42.62"/>
<text xml:space="preserve" text-anchor="start" x="25.62" y="-58.88" font-family="Helvetica,sans-Serif" font-size="22.00">Firecrawl 23/100</text>
<polygon fill="none" stroke="#465766" points="0,-1.88 0,-42.62 213.25,-42.62 213.25,-1.88 0,-1.88"/>
<text xml:space="preserve" text-anchor="start" x="20.75" y="-17.38" font-family="Helvetica,sans-Serif" font-size="18.00">looks interchangeable</text>
</g>
<!-- instance -->
<g id="node2" class="node">
<title>instance</title>
<polygon fill="#d9ecfa" stroke="none" points="256.25,-178 256.25,-226.25 513.75,-226.25 513.75,-178 256.25,-178"/>
<polygon fill="none" stroke="#2a80b9" points="256.25,-178 256.25,-226.25 513.75,-226.25 513.75,-178 256.25,-178"/>
<text xml:space="preserve" text-anchor="start" x="267.25" y="-191.55" font-family="Helvetica,sans-Serif" font-weight="bold" font-size="26.00">Instance&#45;level view</text>
<polygon fill="none" stroke="#2a80b9" points="256.25,-133.5 256.25,-178 453.25,-178 453.25,-133.5 256.25,-133.5"/>
<text xml:space="preserve" text-anchor="start" x="297.75" y="-149.75" font-family="Helvetica,sans-Serif" font-size="22.00">all 3 correct</text>
<polygon fill="none" stroke="#2a80b9" points="453.25,-133.5 453.25,-178 513.75,-178 513.75,-133.5 453.25,-133.5"/>
<text xml:space="preserve" text-anchor="start" x="477.5" y="-147.1" font-family="Helvetica,sans-Serif" font-weight="bold" font-size="22.00">9</text>
<polygon fill="none" stroke="#2a80b9" points="256.25,-89 256.25,-133.5 453.25,-133.5 453.25,-89 256.25,-89"/>
<text xml:space="preserve" text-anchor="start" x="274.5" y="-105.25" font-family="Helvetica,sans-Serif" font-size="22.00">exactly 2 correct</text>
<polygon fill="none" stroke="#2a80b9" points="453.25,-89 453.25,-133.5 513.75,-133.5 513.75,-89 453.25,-89"/>
<text xml:space="preserve" text-anchor="start" x="477.5" y="-102.6" font-family="Helvetica,sans-Serif" font-weight="bold" font-size="22.00">9</text>
<polygon fill="none" stroke="#2a80b9" points="256.25,-44.5 256.25,-89 453.25,-89 453.25,-44.5 256.25,-44.5"/>
<text xml:space="preserve" text-anchor="start" x="274.5" y="-60.75" font-family="Helvetica,sans-Serif" font-size="22.00">exactly 1 correct</text>
<polygon fill="none" stroke="#2a80b9" points="453.25,-44.5 453.25,-89 513.75,-89 513.75,-44.5 453.25,-44.5"/>
<text xml:space="preserve" text-anchor="start" x="471.5" y="-58.1" font-family="Helvetica,sans-Serif" font-weight="bold" font-size="22.00">20</text>
<polygon fill="none" stroke="#2a80b9" points="256.25,0 256.25,-44.5 453.25,-44.5 453.25,0 256.25,0"/>
<text xml:space="preserve" text-anchor="start" x="310.88" y="-16.25" font-family="Helvetica,sans-Serif" font-size="22.00">all wrong</text>
<polygon fill="none" stroke="#2a80b9" points="453.25,0 453.25,-44.5 513.75,-44.5 513.75,0 453.25,0"/>
<text xml:space="preserve" text-anchor="start" x="471.5" y="-13.6" font-family="Helvetica,sans-Serif" font-weight="bold" font-size="22.00">62</text>
</g>
<!-- agg&#45;&gt;instance -->
<g id="edge1" class="edge">
<title>agg&#45;&gt;instance</title>
<path fill="none" stroke="#58606a" stroke-width="2" d="M213.06,-113.12C213.06,-113.12 245.67,-113.12 245.67,-113.12"/>
<polygon fill="#58606a" stroke="#58606a" stroke-width="2" points="245.67,-115.93 253.67,-113.13 245.67,-110.33 245.67,-115.93"/>
</g>
<!-- implication -->
<g id="node3" class="node">
<title>implication</title>
<polygon fill="#fff2d9" stroke="none" points="556.75,-132.38 556.75,-179.88 1063.25,-179.88 1063.25,-132.38 556.75,-132.38"/>
<polygon fill="none" stroke="#b7791f" points="556.75,-132.38 556.75,-179.88 1063.25,-179.88 1063.25,-132.38 556.75,-132.38"/>
<text xml:space="preserve" text-anchor="start" x="744.38" y="-146.12" font-family="Helvetica,sans-Serif" font-weight="bold" font-size="25.00">Implication</text>
<polygon fill="none" stroke="#b7791f" points="556.75,-89.38 556.75,-132.38 1063.25,-132.38 1063.25,-89.38 556.75,-89.38"/>
<text xml:space="preserve" text-anchor="start" x="567.75" y="-105.62" font-family="Helvetica,sans-Serif" font-size="20.00">Provider choice changes which questions are solvable.</text>
<polygon fill="none" stroke="#b7791f" points="556.75,-46.38 556.75,-89.38 1063.25,-89.38 1063.25,-46.38 556.75,-46.38"/>
<text xml:space="preserve" text-anchor="start" x="633.75" y="-62.62" font-family="Helvetica,sans-Serif" font-size="20.00">EM parity is not behavioral equivalence.</text>
</g>
<!-- instance&#45;&gt;implication -->
<g id="edge2" class="edge">
<title>instance&#45;&gt;implication</title>
<path fill="none" stroke="#58606a" stroke-width="2" d="M513.67,-113.12C513.67,-113.12 545.83,-113.12 545.83,-113.12"/>
<polygon fill="#58606a" stroke="#58606a" stroke-width="2" points="545.83,-115.93 553.83,-113.13 545.83,-110.33 545.83,-115.93"/>
</g>
</g>
</svg>
